<?xml version="1.0" encoding="UTF-8"?><!DOCTYPE score-partwise PUBLIC "-//Recordare//DTD MusicXML 2.0 Partwise//EN"                                "http://www.musicxml.org/dtds/partwise.dtd"><score-partwise version="2.0">  <movement-title>Super Bell Hill Theme</movement-title>  <identification>    <rights>©</rights>    <encoding>      <software>Finale SongWriter 2010 for Macintosh</software>      <software>Dolet Light for Finale SongWriter 2010</software>      <encoding-date>2015-03-12</encoding-date>      <supports attribute="new-system" element="print" type="yes" value="yes"/>      <supports attribute="new-page" element="print" type="yes" value="yes"/>    </encoding>  </identification>  <defaults>    <scaling>      <millimeters>7.2319</millimeters>      <tenths>40</tenths>    </scaling>    <page-layout>      <page-height>1545</page-height>      <page-width>1194</page-width>      <page-margins type="both">        <left-margin>140</left-margin>        <right-margin>70</right-margin>        <top-margin>88</top-margin>        <bottom-margin>88</bottom-margin>      </page-margins>    </page-layout>    <system-layout>      <system-margins>        <left-margin>0</left-margin>        <right-margin>0</right-margin>      </system-margins>      <system-distance>121</system-distance>      <top-system-distance>70</top-system-distance>    </system-layout>    <appearance>      <line-width type="stem">0.7487</line-width>      <line-width type="beam">5</line-width>      <line-width type="staff">0.7487</line-width>      <line-width type="light barline">0.7487</line-width>      <line-width type="heavy barline">5</line-width>      <line-width type="leger">0.7487</line-width>      <line-width type="ending">1.4583</line-width>      <line-width type="wedge">1.4583</line-width>      <line-width type="enclosure">0.7487</line-width>      <line-width type="tuplet bracket">0.7487</line-width>      <note-size type="grace">60</note-size>      <note-size type="cue">60</note-size>    </appearance>    <music-font font-family="Maestro" font-size="20.5"/>    <word-font font-family="Times New Roman" font-size="10.25"/>  </defaults>  <credit page="1">    <credit-words default-x="632" default-y="1458" font-size="24" font-weight="bold" justify="center" valign="top">Super Bell Hill Theme</credit-words>  </credit>  <credit page="1">    <credit-words default-x="632" default-y="70" font-size="10" justify="center" valign="bottom">©</credit-words>  </credit>  <credit page="2">    <credit-words default-x="632" default-y="1481" font-size="12" font-weight="bold" halign="center" valign="top">Super Bell Hill Theme</credit-words>  </credit>  <credit page="2">    <credit-words default-x="140" default-y="1481" font-size="14" valign="top">2</credit-words>  </credit>  <part-list>    <score-part id="P1">      <part-name>Clarinet in Bb</part-name>      <score-instrument id="P1-I1">        <instrument-name>Clarinet in Bb</instrument-name>      </score-instrument>      <midi-instrument id="P1-I1">        <midi-channel>1</midi-channel>        <midi-program>72</midi-program>        <volume>80</volume>        <pan>0</pan>      </midi-instrument>    </score-part>  </part-list>  <!--=========================================================-->  <part id="P1">    <measure number="1" width="560">      <print page-number="1">        <system-layout>          <system-margins>            <left-margin>70</left-margin>            <right-margin>0</right-margin>          </system-margins>          <top-system-distance>142</top-system-distance>        </system-layout>      </print>      <attributes>        <divisions>24</divisions>        <key>          <fifths>1</fifths>          <mode>major</mode>        </key>        <time symbol="cut">          <beats>2</beats>          <beat-type>2</beat-type>        </time>        <clef>          <sign>G</sign>          <line>2</line>        </clef>        <transpose>          <diatonic>-1</diatonic>          <chromatic>-2</chromatic>        </transpose>      </attributes>      <sound tempo="240"/>      <note default-x="110">        <pitch>          <step>D</step>          <octave>5</octave>        </pitch>        <duration>12</duration>        <voice>1</voice>        <type>eighth</type>        <stem default-y="-45">down</stem>        <beam number="1">begin</beam>      </note>      <note default-x="166">        <rest/>        <duration>12</duration>        <voice>1</voice>        <type>eighth</type>      </note>      <note default-x="222">        <pitch>          <step>C</step>          <octave>5</octave>        </pitch>        <duration>12</duration>        <voice>1</voice>        <type>eighth</type>        <stem default-y="-50">down</stem>        <beam number="1">end</beam>      </note>      <note default-x="279">        <rest/>        <duration>12</duration>        <voice>1</voice>        <type>eighth</type>      </note>      <note default-x="335">        <pitch>          <step>B</step>          <octave>4</octave>        </pitch>        <duration>12</duration>        <voice>1</voice>        <type>eighth</type>        <stem default-y="15">up</stem>        <beam number="1">begin</beam>      </note>      <note default-x="391">        <pitch>          <step>B</step>          <alter>-1</alter>          <octave>4</octave>        </pitch>        <duration>12</duration>        <voice>1</voice>        <type>eighth</type>        <accidental>flat</accidental>        <stem default-y="15">up</stem>        <beam number="1">continue</beam>      </note>      <note default-x="447">        <rest/>        <duration>12</duration>        <voice>1</voice>        <type>eighth</type>      </note>      <note default-x="502">        <pitch>          <step>A</step>          <octave>4</octave>        </pitch>        <duration>12</duration>        <tie type="start"/>        <voice>1</voice>        <type>eighth</type>        <stem default-y="15">up</stem>        <beam number="1">end</beam>        <notations>          <tied type="start"/>        </notations>      </note>    </measure>    <!--=======================================================-->    <measure number="2" width="354">      <note default-x="14">        <pitch>          <step>A</step>          <octave>4</octave>        </pitch>        <duration>12</duration>        <tie type="stop"/>        <voice>1</voice>        <type>eighth</type>        <stem default-y="10.5">up</stem>        <notations>          <tied type="stop"/>        </notations>      </note>      <note default-x="67">        <pitch>          <step>D</step>          <octave>4</octave>        </pitch>        <duration>36</duration>        <voice>1</voice>        <type>quarter</type>        <dot/>        <stem default-y="-9.5">up</stem>      </note>      <note default-x="180">        <pitch>          <step>E</step>          <octave>4</octave>        </pitch>        <duration>24</duration>        <voice>1</voice>        <type>quarter</type>        <stem default-y="-5">up</stem>        <notations>          <articulations>            <staccato default-x="3" default-y="-54" placement="below"/>          </articulations>        </notations>      </note>      <note default-x="266">        <pitch>          <step>G</step>          <octave>4</octave>        </pitch>        <duration>24</duration>        <voice>1</voice>        <type>quarter</type>        <stem default-y="5.5">up</stem>        <notations>          <articulations>            <staccato default-x="3" default-y="-47" placement="below"/>          </articulations>        </notations>      </note>    </measure>    <!--=======================================================-->    <measure number="3" width="324">      <print new-system="yes">        <system-layout>          <system-distance>114</system-distance>        </system-layout>      </print>      <barline location="left">        <bar-style>heavy-light</bar-style>        <repeat direction="forward"/>      </barline>      <note default-x="97">        <pitch>          <step>A</step>          <octave>4</octave>        </pitch>        <duration>24</duration>        <voice>1</voice>        <type>quarter</type>        <stem default-y="10.5">up</stem>        <notations>          <articulations>            <staccato default-x="3" default-y="-37" placement="below"/>          </articulations>        </notations>      </note>      <note default-x="147">        <pitch>          <step>G</step>          <octave>4</octave>        </pitch>        <duration>24</duration>        <voice>1</voice>        <type>quarter</type>        <stem default-y="5">up</stem>        <notations>          <articulations>            <staccato default-x="3" default-y="-47" placement="below"/>          </articulations>        </notations>      </note>      <note default-x="197">        <pitch>          <step>F</step>          <alter>1</alter>          <octave>4</octave>        </pitch>        <duration>12</duration>        <voice>1</voice>        <type>eighth</type>        <stem default-y="0">up</stem>      </note>      <note default-x="231">        <pitch>          <step>G</step>          <octave>4</octave>        </pitch>        <duration>24</duration>        <voice>1</voice>        <type>quarter</type>        <stem default-y="5">up</stem>        <notations>          <articulations>            <staccato default-x="3" default-y="-47" placement="below"/>          </articulations>        </notations>      </note>      <note default-x="281">        <pitch>          <step>D</step>          <octave>4</octave>        </pitch>        <duration>12</duration>        <tie type="start"/>        <voice>1</voice>        <type>eighth</type>        <stem default-y="-9.5">up</stem>        <notations>          <tied type="start"/>        </notations>      </note>    </measure>    <!--=======================================================-->    <measure number="4" width="221">      <note default-x="14">        <pitch>          <step>D</step>          <octave>4</octave>        </pitch>        <duration>48</duration>        <tie type="stop"/>        <voice>1</voice>        <type>half</type>        <stem default-y="-9.5">up</stem>        <notations>          <tied type="stop"/>        </notations>      </note>      <note default-x="93">        <rest/>        <duration>12</duration>        <voice>1</voice>        <type>eighth</type>      </note>      <note default-x="123">        <pitch>          <step>D</step>          <octave>4</octave>        </pitch>        <duration>12</duration>        <voice>1</voice>        <type>eighth</type>        <stem default-y="-9.5">up</stem>      </note>      <note default-x="156">        <pitch>          <step>E</step>          <octave>4</octave>        </pitch>        <duration>16</duration>        <voice>1</voice>        <type>quarter</type>        <time-modification>          <actual-notes>3</actual-notes>          <normal-notes>2</normal-notes>          <normal-type>eighth</normal-type>        </time-modification>        <stem default-y="-4.5">up</stem>        <notations>          <tuplet bracket="yes" number="1" placement="above" type="start"/>        </notations>      </note>      <note default-x="193">        <pitch>          <step>G</step>          <octave>4</octave>        </pitch>        <duration>8</duration>        <voice>1</voice>        <type>eighth</type>        <time-modification>          <actual-notes>3</actual-notes>          <normal-notes>2</normal-notes>          <normal-type>eighth</normal-type>        </time-modification>        <stem default-y="5">up</stem>        <notations>          <tuplet number="1" type="stop"/>        </notations>      </note>    </measure>    <!--=======================================================-->    <measure number="5" width="229">      <note default-x="13">        <pitch>          <step>A</step>          <octave>4</octave>        </pitch>        <duration>24</duration>        <voice>1</voice>        <type>quarter</type>        <stem default-y="10.5">up</stem>        <notations>          <articulations>            <staccato default-x="3" default-y="-37" placement="below"/>          </articulations>        </notations>      </note>      <note default-x="63">        <pitch>          <step>G</step>          <octave>4</octave>        </pitch>        <duration>24</duration>        <voice>1</voice>        <type>quarter</type>        <stem default-y="5">up</stem>        <notations>          <articulations>            <staccato default-x="3" default-y="-47" placement="below"/>          </articulations>        </notations>      </note>      <note default-x="113">        <pitch>          <step>F</step>          <alter>1</alter>          <octave>4</octave>        </pitch>        <duration>12</duration>        <voice>1</voice>        <type>eighth</type>        <stem default-y="0">up</stem>      </note>      <note default-x="145">        <pitch>          <step>G</step>          <octave>4</octave>        </pitch>        <duration>24</duration>        <voice>1</voice>        <type>quarter</type>        <stem default-y="5">up</stem>        <notations>          <articulations>            <staccato default-x="3" default-y="-47" placement="below"/>          </articulations>        </notations>      </note>      <note default-x="195">        <pitch>          <step>B</step>          <octave>4</octave>        </pitch>        <duration>12</duration>        <tie type="start"/>        <voice>1</voice>        <type>eighth</type>        <stem default-y="-55">down</stem>        <notations>          <tied type="start"/>        </notations>      </note>    </measure>    <!--=======================================================-->    <measure number="6" width="209">      <note default-x="14">        <pitch>          <step>B</step>          <octave>4</octave>        </pitch>        <duration>48</duration>        <tie type="stop"/>        <voice>1</voice>        <type>half</type>        <stem default-y="-55">down</stem>        <notations>          <tied type="stop"/>        </notations>      </note>      <note default-x="91">        <rest/>        <duration>12</duration>        <voice>1</voice>        <type>eighth</type>      </note>      <note default-x="121">        <pitch>          <step>G</step>          <octave>4</octave>        </pitch>        <duration>12</duration>        <voice>1</voice>        <type>eighth</type>        <stem default-y="5">up</stem>      </note>      <note default-x="150">        <pitch>          <step>G</step>          <octave>4</octave>        </pitch>        <duration>16</duration>        <voice>1</voice>        <type>quarter</type>        <time-modification>          <actual-notes>3</actual-notes>          <normal-notes>2</normal-notes>          <normal-type>eighth</normal-type>        </time-modification>        <stem default-y="5">up</stem>        <notations>          <tuplet bracket="yes" number="1" placement="above" type="start"/>        </notations>      </note>      <note default-x="186">        <pitch>          <step>D</step>          <octave>5</octave>        </pitch>        <duration>8</duration>        <voice>1</voice>        <type>eighth</type>        <time-modification>          <actual-notes>3</actual-notes>          <normal-notes>2</normal-notes>          <normal-type>eighth</normal-type>        </time-modification>        <stem default-y="-45.5">down</stem>        <notations>          <tuplet number="1" type="stop"/>        </notations>      </note>    </measure>    <!--=======================================================-->    <measure number="7" width="284">      <print new-system="yes">        <system-layout>          <system-distance>114</system-distance>        </system-layout>      </print>      <note default-x="78">        <pitch>          <step>D</step>          <octave>5</octave>        </pitch>        <duration>36</duration>        <voice>1</voice>        <type>quarter</type>        <dot/>        <stem default-y="-45.5">down</stem>      </note>      <note default-x="147">        <pitch>          <step>C</step>          <octave>5</octave>        </pitch>        <duration>12</duration>        <tie type="start"/>        <voice>1</voice>        <type>eighth</type>        <stem default-y="-50">down</stem>        <notations>          <tied type="start"/>        </notations>      </note>      <note default-x="180">        <pitch>          <step>C</step>          <octave>5</octave>        </pitch>        <duration>24</duration>        <tie type="stop"/>        <voice>1</voice>        <type>quarter</type>        <stem default-y="-50">down</stem>        <notations>          <tied type="stop"/>        </notations>      </note>      <note default-x="232">        <pitch>          <step>G</step>          <octave>4</octave>        </pitch>        <duration>24</duration>        <voice>1</voice>        <type>quarter</type>        <stem default-y="5">up</stem>        <notations>          <articulations>            <staccato default-x="3" default-y="-47" placement="below"/>          </articulations>        </notations>      </note>    </measure>    <!--=======================================================-->    <measure number="8" width="220">      <note default-x="14">        <pitch>          <step>D</step>          <octave>5</octave>        </pitch>        <duration>36</duration>        <voice>1</voice>        <type>quarter</type>        <dot/>        <stem default-y="-45.5">down</stem>      </note>      <note default-x="82">        <pitch>          <step>C</step>          <octave>5</octave>        </pitch>        <duration>12</duration>        <tie type="start"/>        <voice>1</voice>        <type>eighth</type>        <stem default-y="-50">down</stem>        <notations>          <tied type="start"/>        </notations>      </note>      <note default-x="116">        <pitch>          <step>C</step>          <octave>5</octave>        </pitch>        <duration>24</duration>        <tie type="stop"/>        <voice>1</voice>        <type>quarter</type>        <stem default-y="-50">down</stem>        <notations>          <tied type="stop"/>        </notations>      </note>      <note default-x="168">        <pitch>          <step>G</step>          <octave>4</octave>        </pitch>        <duration>24</duration>        <voice>1</voice>        <type>quarter</type>        <stem default-y="5">up</stem>        <notations>          <articulations>            <staccato default-x="3" default-y="-47" placement="below"/>          </articulations>        </notations>      </note>    </measure>    <!--=======================================================-->    <measure number="9" width="246">      <note default-x="14">        <pitch>          <step>B</step>          <octave>4</octave>        </pitch>        <duration>24</duration>        <voice>1</voice>        <type>quarter</type>        <stem default-y="-55">down</stem>        <notations>          <articulations>            <staccato default-x="3" default-y="-7" placement="above"/>          </articulations>        </notations>      </note>      <note default-x="66">        <pitch>          <step>B</step>          <octave>4</octave>        </pitch>        <duration>24</duration>        <voice>1</voice>        <type>quarter</type>        <stem default-y="-55">down</stem>        <notations>          <articulations>            <staccato default-x="3" default-y="-7" placement="above"/>          </articulations>        </notations>      </note>      <note default-x="118">        <pitch>          <step>B</step>          <octave>4</octave>        </pitch>        <duration>12</duration>        <voice>1</voice>        <type>eighth</type>        <stem default-y="-55">down</stem>      </note>      <note default-x="151">        <pitch>          <step>C</step>          <octave>5</octave>        </pitch>        <duration>24</duration>        <voice>1</voice>        <type>quarter</type>        <stem default-y="-50">down</stem>        <notations>          <articulations>            <staccato default-x="3" default-y="-7" placement="above"/>          </articulations>        </notations>      </note>      <note default-x="203">        <pitch>          <step>A</step>          <octave>4</octave>        </pitch>        <duration>12</duration>        <tie type="start"/>        <voice>1</voice>        <type>eighth</type>        <stem default-y="11">up</stem>        <notations>          <tied type="start"/>        </notations>      </note>    </measure>    <!--=======================================================-->    <measure number="10" width="233">      <note default-x="13">        <pitch>          <step>A</step>          <octave>4</octave>        </pitch>        <duration>48</duration>        <tie type="stop"/>        <voice>1</voice>        <type>half</type>        <stem default-y="11">up</stem>        <notations>          <tied type="stop"/>        </notations>      </note>      <note default-x="99">        <rest/>        <duration>12</duration>        <voice>1</voice>        <type>eighth</type>      </note>      <note default-x="131">        <pitch>          <step>D</step>          <octave>4</octave>        </pitch>        <duration>12</duration>        <voice>1</voice>        <type>eighth</type>        <stem default-y="-9">up</stem>      </note>      <note default-x="164">        <pitch>          <step>E</step>          <octave>4</octave>        </pitch>        <duration>16</duration>        <voice>1</voice>        <type>quarter</type>        <time-modification>          <actual-notes>3</actual-notes>          <normal-notes>2</normal-notes>          <normal-type>eighth</normal-type>        </time-modification>        <stem default-y="-4.5">up</stem>        <notations>          <tuplet bracket="yes" number="1" placement="above" type="start"/>        </notations>      </note>      <note default-x="204">        <pitch>          <step>G</step>          <octave>4</octave>        </pitch>        <duration>8</duration>        <voice>1</voice>        <type>eighth</type>        <time-modification>          <actual-notes>3</actual-notes>          <normal-notes>2</normal-notes>          <normal-type>eighth</normal-type>        </time-modification>        <stem default-y="5">up</stem>        <notations>          <tuplet number="1" type="stop"/>        </notations>      </note>    </measure>    <!--=======================================================-->    <measure number="11" width="310">      <print new-system="yes">        <system-layout>          <system-distance>114</system-distance>        </system-layout>      </print>      <note default-x="78">        <pitch>          <step>A</step>          <octave>4</octave>        </pitch>        <duration>24</duration>        <voice>1</voice>        <type>quarter</type>        <stem default-y="10">up</stem>        <notations>          <articulations>            <staccato default-x="3" default-y="-37" placement="below"/>          </articulations>        </notations>      </note>      <note default-x="130">        <pitch>          <step>G</step>          <octave>4</octave>        </pitch>        <duration>24</duration>        <voice>1</voice>        <type>quarter</type>        <stem default-y="5.5">up</stem>        <notations>          <articulations>            <staccato default-x="3" default-y="-47" placement="below"/>          </articulations>        </notations>      </note>      <note default-x="181">        <pitch>          <step>F</step>          <alter>1</alter>          <octave>4</octave>        </pitch>        <duration>12</duration>        <voice>1</voice>        <type>eighth</type>        <stem default-y="0.5">up</stem>      </note>      <note default-x="215">        <pitch>          <step>G</step>          <octave>4</octave>        </pitch>        <duration>24</duration>        <voice>1</voice>        <type>quarter</type>        <stem default-y="5.5">up</stem>        <notations>          <articulations>            <staccato default-x="3" default-y="-47" placement="below"/>          </articulations>        </notations>      </note>      <note default-x="267">        <pitch>          <step>D</step>          <octave>4</octave>        </pitch>        <duration>12</duration>        <tie type="start"/>        <voice>1</voice>        <type>eighth</type>        <stem default-y="-10">up</stem>        <notations>          <tied type="start"/>        </notations>      </note>    </measure>    <!--=======================================================-->    <measure number="12" width="226">      <note default-x="14">        <pitch>          <step>D</step>          <octave>4</octave>        </pitch>        <duration>48</duration>        <tie type="stop"/>        <voice>1</voice>        <type>half</type>        <stem default-y="-10">up</stem>        <notations>          <tied type="stop"/>        </notations>      </note>      <note default-x="95">        <rest/>        <duration>12</duration>        <voice>1</voice>        <type>eighth</type>      </note>      <note default-x="126">        <pitch>          <step>D</step>          <octave>4</octave>        </pitch>        <duration>12</duration>        <voice>1</voice>        <type>eighth</type>        <stem default-y="-10">up</stem>      </note>      <note default-x="159">        <pitch>          <step>E</step>          <octave>4</octave>        </pitch>        <duration>16</duration>        <voice>1</voice>        <type>quarter</type>        <time-modification>          <actual-notes>3</actual-notes>          <normal-notes>2</normal-notes>          <normal-type>eighth</normal-type>        </time-modification>        <stem default-y="-4">up</stem>        <notations>          <tuplet bracket="yes" number="1" placement="above" type="start"/>        </notations>      </note>      <note default-x="198">        <pitch>          <step>G</step>          <octave>4</octave>        </pitch>        <duration>8</duration>        <voice>1</voice>        <type>eighth</type>        <time-modification>          <actual-notes>3</actual-notes>          <normal-notes>2</normal-notes>          <normal-type>eighth</normal-type>        </time-modification>        <stem default-y="5.5">up</stem>        <notations>          <tuplet number="1" type="stop"/>        </notations>      </note>    </measure>    <!--=======================================================-->    <measure number="13" width="233">      <note default-x="14">        <pitch>          <step>A</step>          <octave>4</octave>        </pitch>        <duration>24</duration>        <voice>1</voice>        <type>quarter</type>        <stem default-y="10">up</stem>        <notations>          <articulations>            <staccato default-x="3" default-y="-37" placement="below"/>          </articulations>        </notations>      </note>      <note default-x="65">        <pitch>          <step>G</step>          <octave>4</octave>        </pitch>        <duration>24</duration>        <voice>1</voice>        <type>quarter</type>        <stem default-y="5.5">up</stem>        <notations>          <articulations>            <staccato default-x="3" default-y="-47" placement="below"/>          </articulations>        </notations>      </note>      <note default-x="116">        <pitch>          <step>F</step>          <alter>1</alter>          <octave>4</octave>        </pitch>        <duration>12</duration>        <voice>1</voice>        <type>eighth</type>        <stem default-y="0.5">up</stem>      </note>      <note default-x="148">        <pitch>          <step>G</step>          <octave>4</octave>        </pitch>        <duration>24</duration>        <voice>1</voice>        <type>quarter</type>        <stem default-y="5.5">up</stem>        <notations>          <articulations>            <staccato default-x="3" default-y="-47" placement="below"/>          </articulations>        </notations>      </note>      <note default-x="199">        <pitch>          <step>B</step>          <octave>4</octave>        </pitch>        <duration>12</duration>        <tie type="start"/>        <voice>1</voice>        <type>eighth</type>        <stem default-y="-55">down</stem>        <notations>          <tied type="start"/>        </notations>      </note>    </measure>    <!--=======================================================-->    <measure number="14" width="214">      <note default-x="14">        <pitch>          <step>B</step>          <octave>4</octave>        </pitch>        <duration>48</duration>        <tie type="stop"/>        <voice>1</voice>        <type>half</type>        <stem default-y="-55">down</stem>        <notations>          <tied type="stop"/>        </notations>      </note>      <note default-x="93">        <rest/>        <duration>12</duration>        <voice>1</voice>        <type>eighth</type>      </note>      <note default-x="123">        <pitch>          <step>G</step>          <octave>4</octave>        </pitch>        <duration>12</duration>        <voice>1</voice>        <type>eighth</type>        <stem default-y="5.5">up</stem>      </note>      <note default-x="153">        <pitch>          <step>G</step>          <octave>4</octave>        </pitch>        <duration>16</duration>        <voice>1</voice>        <type>quarter</type>        <time-modification>          <actual-notes>3</actual-notes>          <normal-notes>2</normal-notes>          <normal-type>eighth</normal-type>        </time-modification>        <stem default-y="5.5">up</stem>        <notations>          <tuplet bracket="yes" number="1" placement="above" type="start"/>        </notations>      </note>      <note default-x="190">        <pitch>          <step>D</step>          <octave>5</octave>        </pitch>        <duration>8</duration>        <voice>1</voice>        <type>eighth</type>        <time-modification>          <actual-notes>3</actual-notes>          <normal-notes>2</normal-notes>          <normal-type>eighth</normal-type>        </time-modification>        <stem default-y="-45">down</stem>        <notations>          <tuplet number="1" type="stop"/>        </notations>      </note>    </measure>    <!--=======================================================-->    <measure number="15" width="259">      <print new-system="yes">        <system-layout>          <system-distance>114</system-distance>        </system-layout>      </print>      <note default-x="78">        <pitch>          <step>D</step>          <octave>5</octave>        </pitch>        <duration>36</duration>        <voice>1</voice>        <type>quarter</type>        <dot/>        <stem default-y="-45">down</stem>      </note>      <note default-x="137">        <pitch>          <step>C</step>          <octave>5</octave>        </pitch>        <duration>12</duration>        <tie type="start"/>        <voice>1</voice>        <type>eighth</type>        <stem default-y="-50">down</stem>        <notations>          <tied type="start"/>        </notations>      </note>      <note default-x="170">        <pitch>          <step>C</step>          <octave>5</octave>        </pitch>        <duration>24</duration>        <tie type="stop"/>        <voice>1</voice>        <type>quarter</type>        <stem default-y="-50">down</stem>        <notations>          <tied type="stop"/>        </notations>      </note>      <note default-x="214">        <pitch>          <step>B</step>          <octave>4</octave>        </pitch>        <duration>24</duration>        <voice>1</voice>        <type>quarter</type>        <stem default-y="-55.5">down</stem>        <notations>          <articulations>            <staccato default-x="3" default-y="-7" placement="above"/>          </articulations>        </notations>      </note>    </measure>    <!--=======================================================-->    <measure number="16" width="224">      <note default-x="13">        <pitch>          <step>A</step>          <octave>4</octave>        </pitch>        <duration>24</duration>        <voice>1</voice>        <type>quarter</type>        <stem default-y="10.5">up</stem>        <notations>          <articulations>            <staccato default-x="3" default-y="-37" placement="below"/>          </articulations>        </notations>      </note>      <note default-x="59">        <pitch>          <step>D</step>          <octave>4</octave>        </pitch>        <duration>24</duration>        <voice>1</voice>        <type>quarter</type>        <stem default-y="-9.5">up</stem>        <notations>          <articulations>            <staccato default-x="3" default-y="-59" placement="below"/>          </articulations>        </notations>      </note>      <note default-x="104">        <pitch>          <step>E</step>          <octave>4</octave>        </pitch>        <duration>12</duration>        <voice>1</voice>        <type>eighth</type>        <stem default-y="-5">up</stem>      </note>      <note default-x="136">        <pitch>          <step>G</step>          <octave>4</octave>        </pitch>        <duration>24</duration>        <voice>1</voice>        <type>quarter</type>        <stem default-y="5.5">up</stem>        <notations>          <articulations>            <staccato default-x="3" default-y="-47" placement="below"/>          </articulations>        </notations>      </note>      <note default-x="181">        <pitch>          <step>G</step>          <octave>4</octave>        </pitch>        <duration>12</duration>        <tie type="start"/>        <voice>1</voice>        <type>eighth</type>        <stem default-y="5.5">up</stem>        <notations>          <tied type="start"/>        </notations>      </note>    </measure>    <!--=======================================================-->    <measure number="17" width="125">      <note default-x="13">        <pitch>          <step>G</step>          <octave>4</octave>        </pitch>        <duration>96</duration>        <tie type="stop"/>        <tie type="start"/>        <voice>1</voice>        <type>whole</type>        <notations>          <tied type="stop"/>          <tied type="start"/>        </notations>      </note>    </measure>    <!--=======================================================-->    <measure number="18" width="225">      <barline location="left">        <ending default-y="40" end-length="30" font-size="8.5" number="1" type="start"/>      </barline>      <note default-x="13">        <pitch>          <step>G</step>          <octave>4</octave>        </pitch>        <duration>48</duration>        <tie type="stop"/>        <voice>1</voice>        <type>half</type>        <stem default-y="5.5">up</stem>        <notations>          <tied type="stop"/>        </notations>      </note>      <note default-x="86">        <rest/>        <duration>12</duration>        <voice>1</voice>        <type>eighth</type>      </note>      <note default-x="113">        <pitch>          <step>D</step>          <octave>4</octave>        </pitch>        <duration>12</duration>        <voice>1</voice>        <type>eighth</type>        <stem default-y="-9.5">up</stem>      </note>      <note default-x="144">        <pitch>          <step>E</step>          <octave>4</octave>        </pitch>        <duration>16</duration>        <voice>1</voice>        <type>quarter</type>        <time-modification>          <actual-notes>3</actual-notes>          <normal-notes>2</normal-notes>          <normal-type>eighth</normal-type>        </time-modification>        <stem default-y="-5">up</stem>        <notations>          <tuplet bracket="yes" number="1" placement="above" type="start"/>        </notations>      </note>      <note default-x="178">        <pitch>          <step>G</step>          <octave>4</octave>        </pitch>        <duration>8</duration>        <voice>1</voice>        <type>eighth</type>        <time-modification>          <actual-notes>3</actual-notes>          <normal-notes>2</normal-notes>          <normal-type>eighth</normal-type>        </time-modification>        <stem default-y="5.5">up</stem>        <notations>          <tuplet number="1" type="stop"/>        </notations>      </note>      <barline location="right">        <bar-style>light-heavy</bar-style>        <ending number="1" type="stop"/>        <repeat direction="backward"/>      </barline>    </measure>    <!--=======================================================-->    <measure number="19" width="150">      <barline location="left">        <ending default-y="40" end-length="30" font-size="8.5" number="2" type="start"/>      </barline>      <note default-x="13">        <pitch>          <step>G</step>          <octave>4</octave>        </pitch>        <duration>48</duration>        <voice>1</voice>        <type>half</type>        <stem default-y="5.5">up</stem>      </note>      <note default-x="79">        <rest/>        <duration>48</duration>        <voice>1</voice>        <type>half</type>      </note>      <barline location="right">        <ending number="2" type="discontinue"/>      </barline>    </measure>    <!--=======================================================-->    <measure number="20" width="288">      <print new-system="yes">        <system-layout>          <system-distance>114</system-distance>        </system-layout>      </print>      <note default-x="78">        <pitch>          <step>E</step>          <octave>5</octave>        </pitch>        <duration>36</duration>        <voice>1</voice>        <type>quarter</type>        <dot/>        <stem default-y="-40">down</stem>      </note>      <note default-x="148">        <pitch>          <step>C</step>          <octave>5</octave>        </pitch>        <duration>12</duration>        <tie type="start"/>        <voice>1</voice>        <type>eighth</type>        <stem default-y="-50.5">down</stem>        <notations>          <tied type="start"/>        </notations>      </note>      <note default-x="181">        <pitch>          <step>C</step>          <octave>5</octave>        </pitch>        <duration>24</duration>        <tie type="stop"/>        <voice>1</voice>        <type>quarter</type>        <stem default-y="-50.5">down</stem>        <notations>          <tied type="stop"/>        </notations>      </note>      <note default-x="235">        <pitch>          <step>E</step>          <octave>5</octave>        </pitch>        <duration>24</duration>        <voice>1</voice>        <type>quarter</type>        <stem default-y="-40">down</stem>      </note>    </measure>    <!--=======================================================-->    <measure number="21" width="253">      <note default-x="13">        <grace slash="yes"/>        <pitch>          <step>F</step>          <alter>1</alter>          <octave>5</octave>        </pitch>        <voice>1</voice>        <type>32nd</type>        <stem default-y="26">up</stem>      </note>      <note default-x="36">        <pitch>          <step>G</step>          <octave>5</octave>        </pitch>        <duration>36</duration>        <voice>1</voice>        <type>quarter</type>        <dot/>        <stem default-y="-30.5">down</stem>      </note>      <note default-x="108">        <pitch>          <step>F</step>          <alter>1</alter>          <octave>5</octave>        </pitch>        <duration>12</duration>        <tie type="start"/>        <voice>1</voice>        <type>eighth</type>        <stem default-y="-35">down</stem>        <notations>          <tied type="start"/>        </notations>      </note>      <note default-x="143">        <pitch>          <step>F</step>          <alter>1</alter>          <octave>5</octave>        </pitch>        <duration>24</duration>        <tie type="stop"/>        <voice>1</voice>        <type>quarter</type>        <stem default-y="-35">down</stem>        <notations>          <tied type="stop"/>        </notations>      </note>      <note default-x="198">        <pitch>          <step>E</step>          <octave>5</octave>        </pitch>        <duration>24</duration>        <voice>1</voice>        <type>quarter</type>        <stem default-y="-40">down</stem>      </note>    </measure>    <!--=======================================================-->    <measure number="22" width="267">      <note default-x="14">        <pitch>          <step>D</step>          <octave>5</octave>        </pitch>        <duration>24</duration>        <voice>1</voice>        <type>quarter</type>        <stem default-y="-45">down</stem>        <notations>          <articulations>            <staccato default-x="3" default-y="3" placement="above"/>          </articulations>        </notations>      </note>      <note default-x="74">        <pitch>          <step>D</step>          <octave>5</octave>        </pitch>        <duration>24</duration>        <voice>1</voice>        <type>quarter</type>        <stem default-y="-45">down</stem>        <notations>          <articulations>            <staccato default-x="3" default-y="3" placement="above"/>          </articulations>        </notations>      </note>      <note default-x="111">        <grace slash="yes"/>        <pitch>          <step>C</step>          <alter>1</alter>          <octave>5</octave>        </pitch>        <voice>1</voice>        <type>32nd</type>        <accidental>sharp</accidental>        <stem default-y="11.5">up</stem>      </note>      <note default-x="133">        <pitch>          <step>D</step>          <octave>5</octave>        </pitch>        <duration>12</duration>        <voice>1</voice>        <type>eighth</type>        <stem default-y="-45">down</stem>      </note>      <note default-x="170">        <pitch>          <step>C</step>          <octave>5</octave>        </pitch>        <duration>24</duration>        <voice>1</voice>        <type>quarter</type>        <accidental>natural</accidental>        <stem default-y="-50.5">down</stem>        <notations>          <articulations>            <staccato default-x="3" default-y="-7" placement="above"/>          </articulations>        </notations>      </note>      <note default-x="229">        <pitch>          <step>B</step>          <octave>4</octave>        </pitch>        <duration>12</duration>        <tie type="start"/>        <voice>1</voice>        <type>eighth</type>        <stem default-y="-55">down</stem>        <notations>          <tied type="start"/>        </notations>      </note>    </measure>    <!--=======================================================-->    <measure number="23" width="175">      <note default-x="14">        <pitch>          <step>B</step>          <octave>4</octave>        </pitch>        <duration>48</duration>        <tie type="stop"/>        <voice>1</voice>        <type>half</type>        <stem default-y="-55">down</stem>        <notations>          <tied type="stop"/>        </notations>      </note>      <note default-x="92">        <rest/>        <duration>48</duration>        <voice>1</voice>        <type>half</type>      </note>    </measure>    <!--=======================================================-->    <measure number="24" width="304">      <print new-system="yes">        <system-layout>          <system-distance>114</system-distance>        </system-layout>      </print>      <note default-x="78">        <pitch>          <step>C</step>          <octave>5</octave>        </pitch>        <duration>36</duration>        <voice>1</voice>        <type>quarter</type>        <dot/>        <stem default-y="-50">down</stem>      </note>      <note default-x="151">        <pitch>          <step>A</step>          <octave>4</octave>        </pitch>        <duration>12</duration>        <tie type="start"/>        <voice>1</voice>        <type>eighth</type>        <stem default-y="11">up</stem>        <notations>          <tied type="start"/>        </notations>      </note>      <note default-x="194">        <pitch>          <step>A</step>          <octave>4</octave>        </pitch>        <duration>24</duration>        <tie type="stop"/>        <voice>1</voice>        <type>quarter</type>        <stem default-y="11">up</stem>        <notations>          <tied type="stop"/>        </notations>      </note>      <note default-x="249">        <pitch>          <step>C</step>          <octave>5</octave>        </pitch>        <duration>24</duration>        <voice>1</voice>        <type>quarter</type>        <stem default-y="-50">down</stem>      </note>    </measure>    <!--=======================================================-->    <measure number="25" width="270">      <note default-x="22">        <grace slash="yes"/>        <pitch>          <step>D</step>          <alter>1</alter>          <octave>5</octave>        </pitch>        <voice>1</voice>        <type>32nd</type>        <accidental>sharp</accidental>        <stem default-y="16.5">up</stem>      </note>      <note default-x="45">        <pitch>          <step>E</step>          <octave>5</octave>        </pitch>        <duration>36</duration>        <voice>1</voice>        <type>quarter</type>        <dot/>        <stem default-y="-40">down</stem>      </note>      <note default-x="120">        <pitch>          <step>D</step>          <octave>5</octave>        </pitch>        <duration>12</duration>        <tie type="start"/>        <voice>1</voice>        <type>eighth</type>        <accidental>natural</accidental>        <stem default-y="-45.5">down</stem>        <notations>          <tied type="start"/>        </notations>      </note>      <note default-x="155">        <pitch>          <step>D</step>          <octave>5</octave>        </pitch>        <duration>24</duration>        <tie type="stop"/>        <voice>1</voice>        <type>quarter</type>        <stem default-y="-45.5">down</stem>        <notations>          <tied type="stop"/>        </notations>      </note>      <note default-x="212">        <pitch>          <step>C</step>          <octave>5</octave>        </pitch>        <duration>24</duration>        <voice>1</voice>        <type>quarter</type>        <stem default-y="-50">down</stem>      </note>    </measure>    <!--=======================================================-->    <measure number="26" width="177">      <note default-x="14">        <pitch>          <step>B</step>          <octave>4</octave>        </pitch>        <duration>48</duration>        <voice>1</voice>        <type>half</type>        <stem default-y="-55">down</stem>      </note>      <note default-x="95">        <pitch>          <step>C</step>          <octave>5</octave>        </pitch>        <duration>48</duration>        <voice>1</voice>        <type>half</type>        <stem default-y="-50">down</stem>      </note>    </measure>    <!--=======================================================-->    <measure number="27" width="232">      <note default-x="27">        <pitch>          <step>C</step>          <alter>1</alter>          <octave>5</octave>        </pitch>        <duration>36</duration>        <voice>1</voice>        <type>quarter</type>        <dot/>        <accidental>sharp</accidental>        <stem default-y="-50">down</stem>      </note>      <note default-x="95">        <pitch>          <step>D</step>          <octave>5</octave>        </pitch>        <duration>12</duration>        <voice>1</voice>        <type>eighth</type>        <stem default-y="-45.5">down</stem>      </note>      <note default-x="127">        <rest/>        <duration>24</duration>        <voice>1</voice>        <type>quarter</type>      </note>      <note default-x="157">        <grace slash="yes"/>        <pitch>          <step>F</step>          <alter>1</alter>          <octave>4</octave>        </pitch>        <voice>1</voice>        <type>32nd</type>        <stem default-y="-9">up</stem>      </note>      <note default-x="179">        <pitch>          <step>G</step>          <octave>4</octave>        </pitch>        <duration>24</duration>        <voice>1</voice>        <type>quarter</type>        <stem default-y="5">up</stem>      </note>    </measure>    <!--=======================================================-->    <measure number="28" width="284">      <print new-system="yes">        <system-layout>          <system-distance>114</system-distance>        </system-layout>      </print>      <note default-x="78">        <pitch>          <step>E</step>          <octave>5</octave>        </pitch>        <duration>36</duration>        <voice>1</voice>        <type>quarter</type>        <dot/>        <stem default-y="-40.5">down</stem>      </note>      <note default-x="147">        <pitch>          <step>C</step>          <octave>5</octave>        </pitch>        <duration>12</duration>        <tie type="start"/>        <voice>1</voice>        <type>eighth</type>        <stem default-y="-50">down</stem>        <notations>          <tied type="start"/>        </notations>      </note>      <note default-x="180">        <pitch>          <step>C</step>          <octave>5</octave>        </pitch>        <duration>24</duration>        <tie type="stop"/>        <voice>1</voice>        <type>quarter</type>        <stem default-y="-50">down</stem>        <notations>          <tied type="stop"/>        </notations>      </note>      <note default-x="232">        <pitch>          <step>E</step>          <octave>5</octave>        </pitch>        <duration>24</duration>        <voice>1</voice>        <type>quarter</type>        <stem default-y="-40.5">down</stem>      </note>    </measure>    <!--=======================================================-->    <measure number="29" width="248">      <note default-x="14">        <grace slash="yes"/>        <pitch>          <step>F</step>          <alter>1</alter>          <octave>5</octave>        </pitch>        <voice>1</voice>        <type>32nd</type>        <stem default-y="26.5">up</stem>      </note>      <note default-x="35">        <pitch>          <step>G</step>          <octave>5</octave>        </pitch>        <duration>36</duration>        <voice>1</voice>        <type>quarter</type>        <dot/>        <stem default-y="-30">down</stem>      </note>      <note default-x="107">        <pitch>          <step>F</step>          <alter>1</alter>          <octave>5</octave>        </pitch>        <duration>12</duration>        <tie type="start"/>        <voice>1</voice>        <type>eighth</type>        <stem default-y="-35">down</stem>        <notations>          <tied type="start"/>        </notations>      </note>      <note default-x="140">        <pitch>          <step>F</step>          <alter>1</alter>          <octave>5</octave>        </pitch>        <duration>24</duration>        <tie type="stop"/>        <voice>1</voice>        <type>quarter</type>        <stem default-y="-35">down</stem>        <notations>          <tied type="stop"/>        </notations>      </note>      <note default-x="194">        <pitch>          <step>E</step>          <octave>5</octave>        </pitch>        <duration>24</duration>        <voice>1</voice>        <type>quarter</type>        <stem default-y="-40.5">down</stem>      </note>    </measure>    <!--=======================================================-->    <measure number="30" width="262">      <note default-x="14">        <pitch>          <step>D</step>          <octave>5</octave>        </pitch>        <duration>24</duration>        <voice>1</voice>        <type>quarter</type>        <stem default-y="-45">down</stem>        <notations>          <articulations>            <staccato default-x="3" default-y="3" placement="above"/>          </articulations>        </notations>      </note>      <note default-x="72">        <pitch>          <step>D</step>          <octave>5</octave>        </pitch>        <duration>24</duration>        <voice>1</voice>        <type>quarter</type>        <stem default-y="-45">down</stem>        <notations>          <articulations>            <staccato default-x="3" default-y="3" placement="above"/>          </articulations>        </notations>      </note>      <note default-x="109">        <grace slash="yes"/>        <pitch>          <step>C</step>          <alter>1</alter>          <octave>5</octave>        </pitch>        <voice>1</voice>        <type>32nd</type>        <accidental>sharp</accidental>        <stem default-y="11">up</stem>      </note>      <note default-x="131">        <pitch>          <step>D</step>          <octave>5</octave>        </pitch>        <duration>12</duration>        <voice>1</voice>        <type>eighth</type>        <stem default-y="-45">down</stem>      </note>      <note default-x="167">        <pitch>          <step>C</step>          <octave>5</octave>        </pitch>        <duration>24</duration>        <voice>1</voice>        <type>quarter</type>        <accidental>natural</accidental>        <stem default-y="-50">down</stem>        <notations>          <articulations>            <staccato default-x="3" default-y="-7" placement="above"/>          </articulations>        </notations>      </note>      <note default-x="225">        <pitch>          <step>B</step>          <octave>4</octave>        </pitch>        <duration>12</duration>        <tie type="start"/>        <voice>1</voice>        <type>eighth</type>        <stem default-y="-55">down</stem>        <notations>          <tied type="start"/>        </notations>      </note>    </measure>    <!--=======================================================-->    <measure number="31" width="189">      <note default-x="14">        <pitch>          <step>B</step>          <octave>4</octave>        </pitch>        <duration>48</duration>        <tie type="stop"/>        <voice>1</voice>        <type>half</type>        <stem default-y="-55">down</stem>        <notations>          <tied type="stop"/>        </notations>      </note>      <note default-x="92">        <rest/>        <duration>24</duration>        <voice>1</voice>        <type>quarter</type>      </note>      <note default-x="140">        <pitch>          <step>B</step>          <octave>4</octave>        </pitch>        <duration>24</duration>        <voice>1</voice>        <type>quarter</type>        <stem default-y="-55">down</stem>      </note>    </measure>    <!--=======================================================-->    <measure number="32" width="365">      <print new-page="yes" page-number="2"/>      <note default-x="78">        <pitch>          <step>C</step>          <octave>5</octave>        </pitch>        <duration>36</duration>        <voice>1</voice>        <type>quarter</type>        <dot/>        <stem default-y="-50">down</stem>      </note>      <note default-x="169">        <pitch>          <step>A</step>          <octave>4</octave>        </pitch>        <duration>12</duration>        <tie type="start"/>        <voice>1</voice>        <type>eighth</type>        <stem default-y="10.5">up</stem>        <notations>          <tied type="start"/>        </notations>      </note>      <note default-x="212">        <pitch>          <step>A</step>          <octave>4</octave>        </pitch>        <duration>24</duration>        <tie type="stop"/>        <voice>1</voice>        <type>quarter</type>        <stem default-y="10.5">up</stem>        <notations>          <tied type="stop"/>        </notations>      </note>      <note default-x="281">        <pitch>          <step>A</step>          <octave>4</octave>        </pitch>        <duration>16</duration>        <voice>1</voice>        <type>quarter</type>        <time-modification>          <actual-notes>3</actual-notes>          <normal-notes>2</normal-notes>          <normal-type>eighth</normal-type>        </time-modification>        <stem default-y="10.5">up</stem>        <notations>          <tuplet bracket="yes" number="1" placement="above" type="start"/>        </notations>      </note>      <note default-x="332">        <pitch>          <step>B</step>          <octave>4</octave>        </pitch>        <duration>8</duration>        <voice>1</voice>        <type>eighth</type>        <time-modification>          <actual-notes>3</actual-notes>          <normal-notes>2</normal-notes>          <normal-type>eighth</normal-type>        </time-modification>        <stem default-y="-55">down</stem>        <notations>          <tuplet number="1" type="stop"/>        </notations>      </note>    </measure>    <!--=======================================================-->    <measure number="33" width="270">      <note default-x="14">        <pitch>          <step>C</step>          <octave>5</octave>        </pitch>        <duration>36</duration>        <voice>1</voice>        <type>quarter</type>        <dot/>        <stem default-y="-50">down</stem>      </note>      <note default-x="100">        <pitch>          <step>B</step>          <octave>4</octave>        </pitch>        <duration>12</duration>        <tie type="start"/>        <voice>1</voice>        <type>eighth</type>        <stem default-y="-55">down</stem>        <notations>          <tied type="start"/>        </notations>      </note>      <note default-x="140">        <pitch>          <step>B</step>          <octave>4</octave>        </pitch>        <duration>24</duration>        <tie type="stop"/>        <voice>1</voice>        <type>quarter</type>        <stem default-y="-55">down</stem>        <notations>          <tied type="stop"/>        </notations>      </note>      <note default-x="205">        <pitch>          <step>F</step>          <octave>5</octave>        </pitch>        <duration>24</duration>        <voice>1</voice>        <type>quarter</type>        <accidental>natural</accidental>        <stem default-y="-35">down</stem>      </note>    </measure>    <!--=======================================================-->    <measure number="34" width="174">      <note default-x="13">        <pitch>          <step>D</step>          <octave>5</octave>        </pitch>        <duration>96</duration>        <tie type="start"/>        <voice>1</voice>        <type>whole</type>        <notations>          <tied type="start"/>        </notations>      </note>    </measure>    <!--=======================================================-->    <measure number="35" width="174">      <note default-x="13">        <pitch>          <step>D</step>          <octave>5</octave>        </pitch>        <duration>96</duration>        <tie type="stop"/>        <voice>1</voice>        <type>whole</type>        <notations>          <tied type="stop"/>        </notations>      </note>    </measure>    <!--=======================================================-->    <measure number="36" width="534">      <print new-system="yes">        <system-layout>          <system-distance>114</system-distance>        </system-layout>      </print>      <note default-x="78">        <rest/>        <duration>12</duration>        <voice>1</voice>        <type>eighth</type>      </note>      <note default-x="141">        <pitch>          <step>D</step>          <octave>5</octave>        </pitch>        <duration>12</duration>        <voice>1</voice>        <type>eighth</type>        <stem default-y="-45.5">down</stem>      </note>      <note default-x="204">        <rest/>        <duration>24</duration>        <voice>1</voice>        <type>quarter</type>      </note>      <note default-x="306">        <pitch>          <step>D</step>          <octave>5</octave>        </pitch>        <duration>12</duration>        <voice>1</voice>        <type>eighth</type>        <stem default-y="-45.5">down</stem>      </note>      <note default-x="369">        <rest/>        <duration>24</duration>        <voice>1</voice>        <type>quarter</type>      </note>      <note default-x="470">        <pitch>          <step>D</step>          <octave>5</octave>        </pitch>        <duration>12</duration>        <tie type="start"/>        <voice>1</voice>        <type>eighth</type>        <stem default-y="-45.5">down</stem>        <notations>          <tied type="start"/>        </notations>      </note>    </measure>    <!--=======================================================-->    <measure number="37" width="449">      <note default-x="14">        <pitch>          <step>D</step>          <octave>5</octave>        </pitch>        <duration>48</duration>        <tie type="stop"/>        <voice>1</voice>        <type>half</type>        <stem default-y="-45.5">down</stem>        <notations>          <tied type="stop"/>        </notations>      </note>      <note default-x="183">        <rest/>        <duration>12</duration>        <voice>1</voice>        <type>eighth</type>      </note>      <note default-x="247">        <pitch>          <step>D</step>          <octave>4</octave>        </pitch>        <duration>12</duration>        <voice>1</voice>        <type>eighth</type>        <stem default-y="-10">up</stem>      </note>      <note default-x="312">        <pitch>          <step>E</step>          <octave>4</octave>        </pitch>        <duration>16</duration>        <voice>1</voice>        <type>quarter</type>        <time-modification>          <actual-notes>3</actual-notes>          <normal-notes>2</normal-notes>          <normal-type>eighth</normal-type>        </time-modification>        <stem default-y="-4.5">up</stem>        <notations>          <tuplet bracket="yes" number="1" placement="above" type="start"/>        </notations>      </note>      <note default-x="391">        <pitch>          <step>G</step>          <octave>4</octave>        </pitch>        <duration>8</duration>        <voice>1</voice>        <type>eighth</type>        <time-modification>          <actual-notes>3</actual-notes>          <normal-notes>2</normal-notes>          <normal-type>eighth</normal-type>        </time-modification>        <stem default-y="5">up</stem>        <notations>          <tuplet number="1" type="stop"/>        </notations>      </note>      <barline location="right">        <bar-style>light-heavy</bar-style>      </barline>    </measure>  </part>  <!--=========================================================--></score-partwise>