<?xml version="1.0" encoding="UTF-8"?><!DOCTYPE score-partwise PUBLIC "-//Recordare//DTD MusicXML 2.0 Partwise//EN"                                "http://www.musicxml.org/dtds/partwise.dtd"><score-partwise version="2.0">  <movement-title>Unfounded Revenge</movement-title>  <identification>    <rights>©</rights>    <encoding>      <software>Finale SongWriter 2010 for Macintosh</software>      <software>Dolet Light for Finale SongWriter 2010</software>      <encoding-date>2015-06-14</encoding-date>      <supports attribute="new-system" element="print" type="yes" value="yes"/>      <supports attribute="new-page" element="print" type="yes" value="yes"/>    </encoding>  </identification>  <defaults>    <scaling>      <millimeters>7.2319</millimeters>      <tenths>40</tenths>    </scaling>    <page-layout>      <page-height>1545</page-height>      <page-width>1194</page-width>      <page-margins type="both">        <left-margin>140</left-margin>        <right-margin>70</right-margin>        <top-margin>88</top-margin>        <bottom-margin>88</bottom-margin>      </page-margins>    </page-layout>    <system-layout>      <system-margins>        <left-margin>0</left-margin>        <right-margin>0</right-margin>      </system-margins>      <system-distance>121</system-distance>      <top-system-distance>70</top-system-distance>    </system-layout>    <appearance>      <line-width type="stem">0.7487</line-width>      <line-width type="beam">5</line-width>      <line-width type="staff">0.7487</line-width>      <line-width type="light barline">0.7487</line-width>      <line-width type="heavy barline">5</line-width>      <line-width type="leger">0.7487</line-width>      <line-width type="ending">1.4583</line-width>      <line-width type="wedge">1.4583</line-width>      <line-width type="enclosure">0.7487</line-width>      <line-width type="tuplet bracket">0.7487</line-width>      <note-size type="grace">60</note-size>      <note-size type="cue">60</note-size>    </appearance>    <music-font font-family="Maestro" font-size="20.5"/>    <word-font font-family="Times New Roman" font-size="10.25"/>  </defaults>  <credit page="1">    <credit-words default-x="632" default-y="1458" font-size="24" font-weight="bold" justify="center" valign="top">Unfounded Revenge</credit-words>  </credit>  <credit page="1">    <credit-words default-x="632" default-y="70" font-size="10" justify="center" valign="bottom">©</credit-words>  </credit>  <part-list>    <score-part id="P1">      <part-name>Clarinet in Bb</part-name>      <score-instrument id="P1-I1">        <instrument-name>Clarinet in Bb</instrument-name>      </score-instrument>      <midi-instrument id="P1-I1">        <midi-channel>1</midi-channel>        <midi-program>72</midi-program>        <volume>80</volume>        <pan>0</pan>      </midi-instrument>    </score-part>  </part-list>  <!--=========================================================-->  <part id="P1">    <measure implicit="yes" number="0" width="114">      <print>        <system-layout>          <system-margins>            <left-margin>70</left-margin>            <right-margin>0</right-margin>          </system-margins>          <top-system-distance>142</top-system-distance>        </system-layout>      </print>      <attributes>        <divisions>12</divisions>        <key>          <fifths>0</fifths>          <mode>major</mode>        </key>        <time>          <beats>4</beats>          <beat-type>4</beat-type>        </time>        <clef>          <sign>G</sign>          <line>2</line>        </clef>        <transpose>          <diatonic>-1</diatonic>          <chromatic>-2</chromatic>        </transpose>      </attributes>      <direction directive="yes" placement="above">        <direction-type>          <metronome default-y="40" font-family="EngraverTextT" font-size="10.25">            <beat-unit>quarter</beat-unit>            <per-minute>135</per-minute>          </metronome>        </direction-type>        <sound tempo="135"/>      </direction>      <note default-x="83">        <pitch>          <step>G</step>          <octave>4</octave>        </pitch>        <duration>6</duration>        <voice>1</voice>        <type>eighth</type>        <stem default-y="5.5">up</stem>      </note>    </measure>    <!--=======================================================-->    <measure number="1" width="187">      <note default-x="14">        <pitch>          <step>D</step>          <octave>4</octave>        </pitch>        <duration>6</duration>        <voice>1</voice>        <type>eighth</type>        <stem default-y="0">up</stem>        <beam number="1">begin</beam>      </note>      <note default-x="37">        <pitch>          <step>E</step>          <octave>4</octave>        </pitch>        <duration>6</duration>        <voice>1</voice>        <type>eighth</type>        <stem default-y="2">up</stem>        <beam number="1">continue</beam>      </note>      <note default-x="66">        <pitch>          <step>F</step>          <octave>4</octave>        </pitch>        <duration>6</duration>        <voice>1</voice>        <type>eighth</type>        <stem default-y="3.5">up</stem>        <beam number="1">continue</beam>      </note>      <note default-x="89">        <pitch>          <step>G</step>          <octave>4</octave>        </pitch>        <duration>6</duration>        <voice>1</voice>        <type>eighth</type>        <stem default-y="5">up</stem>        <beam number="1">end</beam>      </note>      <note default-x="113">        <pitch>          <step>A</step>          <octave>4</octave>        </pitch>        <duration>18</duration>        <voice>1</voice>        <type>quarter</type>        <dot/>        <stem default-y="10.5">up</stem>      </note>      <note default-x="162">        <pitch>          <step>D</step>          <octave>5</octave>        </pitch>        <duration>6</duration>        <voice>1</voice>        <type>eighth</type>        <stem default-y="-45">down</stem>      </note>    </measure>    <!--=======================================================-->    <measure number="2" width="207">      <note default-x="13">        <pitch>          <step>G</step>          <octave>4</octave>        </pitch>        <duration>6</duration>        <voice>1</voice>        <type>eighth</type>        <stem default-y="25">up</stem>        <beam number="1">begin</beam>      </note>      <note default-x="37">        <pitch>          <step>D</step>          <octave>5</octave>        </pitch>        <duration>6</duration>        <voice>1</voice>        <type>eighth</type>        <stem default-y="25">up</stem>        <beam number="1">continue</beam>      </note>      <note default-x="66">        <pitch>          <step>F</step>          <octave>4</octave>        </pitch>        <duration>6</duration>        <voice>1</voice>        <type>eighth</type>        <stem default-y="25">up</stem>        <beam number="1">continue</beam>      </note>      <note default-x="89">        <pitch>          <step>D</step>          <octave>5</octave>        </pitch>        <duration>6</duration>        <voice>1</voice>        <type>eighth</type>        <stem default-y="25">up</stem>        <beam number="1">end</beam>      </note>      <note default-x="113">        <pitch>          <step>E</step>          <octave>4</octave>        </pitch>        <duration>6</duration>        <voice>1</voice>        <type>eighth</type>        <stem default-y="25">up</stem>        <beam number="1">begin</beam>      </note>      <note default-x="136">        <pitch>          <step>D</step>          <octave>5</octave>        </pitch>        <duration>6</duration>        <voice>1</voice>        <type>eighth</type>        <stem default-y="25">up</stem>        <beam number="1">continue</beam>      </note>      <note default-x="159">        <pitch>          <step>D</step>          <octave>4</octave>        </pitch>        <duration>6</duration>        <voice>1</voice>        <type>eighth</type>        <stem default-y="25">up</stem>        <beam number="1">continue</beam>      </note>      <note default-x="183">        <pitch>          <step>F</step>          <octave>4</octave>        </pitch>        <duration>6</duration>        <voice>1</voice>        <type>eighth</type>        <stem default-y="25">up</stem>        <beam number="1">end</beam>      </note>    </measure>    <!--=======================================================-->    <measure number="3" width="185">      <note default-x="13">        <pitch>          <step>E</step>          <octave>4</octave>        </pitch>        <duration>12</duration>        <voice>1</voice>        <type>quarter</type>        <stem default-y="-5">up</stem>      </note>      <note default-x="52">        <pitch>          <step>D</step>          <alter>-1</alter>          <octave>4</octave>        </pitch>        <duration>6</duration>        <voice>1</voice>        <type>eighth</type>        <accidental>flat</accidental>        <stem default-y="-15">up</stem>        <beam number="1">begin</beam>      </note>      <note default-x="75">        <pitch>          <step>A</step>          <octave>3</octave>        </pitch>        <duration>6</duration>        <voice>1</voice>        <type>eighth</type>        <stem default-y="-17">up</stem>        <beam number="1">end</beam>      </note>      <note default-x="99">        <pitch>          <step>E</step>          <octave>4</octave>        </pitch>        <duration>12</duration>        <voice>1</voice>        <type>quarter</type>        <stem default-y="-5">up</stem>      </note>      <note default-x="137">        <pitch>          <step>D</step>          <alter>-1</alter>          <octave>4</octave>        </pitch>        <duration>6</duration>        <voice>1</voice>        <type>eighth</type>        <stem default-y="-15">up</stem>        <beam number="1">begin</beam>      </note>      <note default-x="161">        <pitch>          <step>A</step>          <octave>3</octave>        </pitch>        <duration>6</duration>        <voice>1</voice>        <type>eighth</type>        <stem default-y="-17">up</stem>        <beam number="1">end</beam>      </note>    </measure>    <!--=======================================================-->    <measure number="4" width="220">      <note default-x="13">        <pitch>          <step>G</step>          <octave>4</octave>        </pitch>        <duration>6</duration>        <voice>1</voice>        <type>eighth</type>        <stem default-y="5">up</stem>        <beam number="1">begin</beam>      </note>      <note default-x="43">        <pitch>          <step>F</step>          <octave>4</octave>        </pitch>        <duration>6</duration>        <voice>1</voice>        <type>eighth</type>        <stem default-y="4">up</stem>        <beam number="1">continue</beam>        <notations>          <ornaments>            <trill-mark default-y="20"/>            <wavy-line default-y="20" number="1" type="start"/>          </ornaments>        </notations>      </note>      <note default-x="66">        <pitch>          <step>E</step>          <octave>4</octave>        </pitch>        <duration>6</duration>        <voice>1</voice>        <type>eighth</type>        <stem default-y="3">up</stem>        <beam number="1">continue</beam>        <notations>          <ornaments>            <wavy-line number="1" relative-x="-9" type="stop"/>          </ornaments>        </notations>      </note>      <note default-x="89">        <pitch>          <step>F</step>          <octave>4</octave>        </pitch>        <duration>6</duration>        <voice>1</voice>        <type>eighth</type>        <stem default-y="3">up</stem>        <beam number="1">end</beam>      </note>      <note default-x="112">        <pitch>          <step>D</step>          <octave>4</octave>        </pitch>        <duration>12</duration>        <voice>1</voice>        <type>quarter</type>        <stem default-y="-9.5">up</stem>      </note>      <note default-x="151">        <rest/>        <duration>12</duration>        <voice>1</voice>        <type>quarter</type>      </note>    </measure>    <!--=======================================================-->    <measure number="5" width="160">      <print new-system="yes">        <system-layout>          <system-distance>114</system-distance>        </system-layout>      </print>      <attributes>        <time>          <beats>2</beats>          <beat-type>4</beat-type>        </time>      </attributes>      <note default-x="83">        <rest/>        <duration>18</duration>        <voice>1</voice>        <type>quarter</type>        <dot/>      </note>      <note default-x="132">        <pitch>          <step>A</step>          <octave>4</octave>        </pitch>        <duration>6</duration>        <voice>1</voice>        <type>eighth</type>        <stem default-y="10.5">up</stem>      </note>    </measure>    <!--=======================================================-->    <measure number="6" width="213">      <attributes>        <time>          <beats>4</beats>          <beat-type>4</beat-type>        </time>      </attributes>      <note default-x="45">        <pitch>          <step>D</step>          <octave>5</octave>        </pitch>        <duration>6</duration>        <voice>1</voice>        <type>eighth</type>        <stem default-y="-45">down</stem>        <beam number="1">begin</beam>      </note>      <note default-x="68">        <pitch>          <step>E</step>          <octave>5</octave>        </pitch>        <duration>6</duration>        <voice>1</voice>        <type>eighth</type>        <stem default-y="-43.5">down</stem>        <beam number="1">continue</beam>      </note>      <note default-x="97">        <pitch>          <step>F</step>          <octave>5</octave>        </pitch>        <duration>6</duration>        <voice>1</voice>        <type>eighth</type>        <stem default-y="-41.5">down</stem>        <beam number="1">continue</beam>      </note>      <note default-x="119">        <pitch>          <step>G</step>          <octave>5</octave>        </pitch>        <duration>6</duration>        <voice>1</voice>        <type>eighth</type>        <stem default-y="-40">down</stem>        <beam number="1">end</beam>      </note>      <note default-x="142">        <pitch>          <step>A</step>          <octave>5</octave>        </pitch>        <duration>18</duration>        <voice>1</voice>        <type>quarter</type>        <dot/>        <stem default-y="-25.5">down</stem>      </note>      <note default-x="189">        <pitch>          <step>D</step>          <octave>6</octave>        </pitch>        <duration>6</duration>        <voice>1</voice>        <type>eighth</type>        <stem default-y="-20">down</stem>      </note>    </measure>    <!--=======================================================-->    <measure number="7" width="203">      <note default-x="14">        <pitch>          <step>G</step>          <octave>5</octave>        </pitch>        <duration>6</duration>        <voice>1</voice>        <type>eighth</type>        <stem default-y="-35">down</stem>        <beam number="1">begin</beam>      </note>      <note default-x="36">        <pitch>          <step>D</step>          <octave>6</octave>        </pitch>        <duration>6</duration>        <voice>1</voice>        <type>eighth</type>        <stem default-y="-35">down</stem>        <beam number="1">continue</beam>      </note>      <note default-x="68">        <pitch>          <step>F</step>          <octave>5</octave>        </pitch>        <duration>6</duration>        <voice>1</voice>        <type>eighth</type>        <stem default-y="-35">down</stem>        <beam number="1">continue</beam>      </note>      <note default-x="91">        <pitch>          <step>D</step>          <octave>6</octave>        </pitch>        <duration>6</duration>        <voice>1</voice>        <type>eighth</type>        <stem default-y="-35">down</stem>        <beam number="1">end</beam>      </note>      <note default-x="113">        <pitch>          <step>E</step>          <octave>5</octave>        </pitch>        <duration>6</duration>        <voice>1</voice>        <type>eighth</type>        <stem default-y="-45">down</stem>        <beam number="1">begin</beam>      </note>      <note default-x="135">        <pitch>          <step>D</step>          <octave>6</octave>        </pitch>        <duration>6</duration>        <voice>1</voice>        <type>eighth</type>        <stem default-y="-45">down</stem>        <beam number="1">continue</beam>      </note>      <note default-x="158">        <pitch>          <step>D</step>          <octave>5</octave>        </pitch>        <duration>6</duration>        <voice>1</voice>        <type>eighth</type>        <stem default-y="-45">down</stem>        <beam number="1">continue</beam>      </note>      <note default-x="180">        <pitch>          <step>A</step>          <octave>5</octave>        </pitch>        <duration>6</duration>        <voice>1</voice>        <type>eighth</type>        <stem default-y="-45">down</stem>        <beam number="1">end</beam>      </note>    </measure>    <!--=======================================================-->    <measure number="8" width="189">      <note default-x="26">        <pitch>          <step>A</step>          <alter>-1</alter>          <octave>5</octave>        </pitch>        <duration>12</duration>        <voice>1</voice>        <type>quarter</type>        <accidental>flat</accidental>        <stem default-y="-25.5">down</stem>      </note>      <note default-x="62">        <pitch>          <step>F</step>          <octave>5</octave>        </pitch>        <duration>6</duration>        <voice>1</voice>        <type>eighth</type>        <stem default-y="-40">down</stem>        <beam number="1">begin</beam>      </note>      <note default-x="84">        <pitch>          <step>D</step>          <octave>5</octave>        </pitch>        <duration>6</duration>        <voice>1</voice>        <type>eighth</type>        <stem default-y="-42.5">down</stem>        <beam number="1">end</beam>      </note>      <note default-x="107">        <pitch>          <step>A</step>          <alter>-1</alter>          <octave>5</octave>        </pitch>        <duration>12</duration>        <voice>1</voice>        <type>quarter</type>        <stem default-y="-25.5">down</stem>      </note>      <note default-x="143">        <pitch>          <step>F</step>          <octave>5</octave>        </pitch>        <duration>6</duration>        <voice>1</voice>        <type>eighth</type>        <stem default-y="-40">down</stem>        <beam number="1">begin</beam>      </note>      <note default-x="165">        <pitch>          <step>D</step>          <octave>5</octave>        </pitch>        <duration>6</duration>        <voice>1</voice>        <type>eighth</type>        <stem default-y="-42.5">down</stem>        <beam number="1">end</beam>      </note>    </measure>    <!--=======================================================-->    <measure number="9" width="218">      <note default-x="16">        <pitch>          <step>A</step>          <octave>5</octave>        </pitch>        <duration>6</duration>        <voice>1</voice>        <type>eighth</type>        <stem default-y="-30">down</stem>        <beam number="1">begin</beam>      </note>      <note default-x="39">        <pitch>          <step>G</step>          <octave>5</octave>        </pitch>        <duration>6</duration>        <voice>1</voice>        <type>eighth</type>        <stem default-y="-31">down</stem>        <beam number="1">continue</beam>        <notations>          <ornaments>            <trill-mark default-y="21"/>            <wavy-line default-y="21" number="1" type="start"/>            <wavy-line number="1" type="stop"/>          </ornaments>        </notations>      </note>      <note default-x="68">        <pitch>          <step>F</step>          <octave>5</octave>        </pitch>        <duration>6</duration>        <voice>1</voice>        <type>eighth</type>        <stem default-y="-32">down</stem>        <beam number="1">continue</beam>      </note>      <note default-x="90">        <pitch>          <step>E</step>          <octave>5</octave>        </pitch>        <duration>6</duration>        <voice>1</voice>        <type>eighth</type>        <stem default-y="-32">down</stem>        <beam number="1">end</beam>      </note>      <note default-x="113">        <pitch>          <step>D</step>          <octave>5</octave>        </pitch>        <duration>12</duration>        <voice>1</voice>        <type>quarter</type>        <stem default-y="-45.5">down</stem>      </note>      <note default-x="149">        <rest/>        <duration>12</duration>        <voice>1</voice>        <type>quarter</type>      </note>    </measure>    <!--=======================================================-->    <measure number="10" width="179">      <print new-system="yes">        <system-layout>          <system-distance>114</system-distance>        </system-layout>      </print>      <attributes>        <time>          <beats>2</beats>          <beat-type>4</beat-type>        </time>      </attributes>      <note>        <rest/>        <duration>24</duration>        <voice>1</voice>      </note>    </measure>    <!--=======================================================-->    <measure number="11" width="321">      <attributes>        <time>          <beats>4</beats>          <beat-type>4</beat-type>        </time>      </attributes>      <note default-x="57">        <pitch>          <step>B</step>          <alter>-1</alter>          <octave>5</octave>        </pitch>        <duration>6</duration>        <voice>1</voice>        <type>eighth</type>        <accidental>flat</accidental>        <stem default-y="-20">down</stem>        <beam number="1">begin</beam>      </note>      <note default-x="82">        <pitch>          <step>B</step>          <alter>-1</alter>          <octave>5</octave>        </pitch>        <duration>3</duration>        <voice>1</voice>        <type>16th</type>        <stem default-y="-20">down</stem>        <beam number="1">continue</beam>        <beam number="2">begin</beam>      </note>      <note default-x="106">        <pitch>          <step>B</step>          <alter>-1</alter>          <octave>5</octave>        </pitch>        <duration>3</duration>        <voice>1</voice>        <type>16th</type>        <stem default-y="-20">down</stem>        <beam number="1">end</beam>        <beam number="2">end</beam>      </note>      <note default-x="131">        <pitch>          <step>B</step>          <alter>-1</alter>          <octave>5</octave>        </pitch>        <duration>4</duration>        <voice>1</voice>        <type>eighth</type>        <time-modification>          <actual-notes>3</actual-notes>          <normal-notes>2</normal-notes>        </time-modification>        <stem default-y="-35">down</stem>        <beam number="1">begin</beam>        <notations>          <tuplet number="1" placement="below" type="start"/>        </notations>      </note>      <note default-x="162">        <pitch>          <step>F</step>          <octave>5</octave>        </pitch>        <duration>4</duration>        <voice>1</voice>        <type>eighth</type>        <time-modification>          <actual-notes>3</actual-notes>          <normal-notes>2</normal-notes>        </time-modification>        <stem default-y="-35">down</stem>        <beam number="1">continue</beam>      </note>      <note default-x="193">        <pitch>          <step>C</step>          <octave>6</octave>        </pitch>        <duration>4</duration>        <voice>1</voice>        <type>eighth</type>        <time-modification>          <actual-notes>3</actual-notes>          <normal-notes>2</normal-notes>        </time-modification>        <stem default-y="-35">down</stem>        <beam number="1">end</beam>        <notations>          <tuplet number="1" type="stop"/>        </notations>      </note>      <note default-x="217">        <pitch>          <step>D</step>          <octave>6</octave>        </pitch>        <duration>18</duration>        <voice>1</voice>        <type>quarter</type>        <dot/>        <stem default-y="-20.5">down</stem>      </note>      <note default-x="267">        <pitch>          <step>E</step>          <octave>6</octave>        </pitch>        <duration>3</duration>        <voice>1</voice>        <type>16th</type>        <stem default-y="-25">down</stem>        <beam number="1">begin</beam>        <beam number="2">begin</beam>      </note>      <note default-x="299">        <pitch>          <step>F</step>          <octave>6</octave>        </pitch>        <duration>3</duration>        <voice>1</voice>        <type>16th</type>        <stem default-y="-22.5">down</stem>        <beam number="1">end</beam>        <beam number="2">end</beam>      </note>    </measure>    <!--=======================================================-->    <measure number="12" width="226">      <note default-x="16">        <pitch>          <step>E</step>          <octave>6</octave>        </pitch>        <duration>6</duration>        <voice>1</voice>        <type>eighth</type>        <stem default-y="-20">down</stem>        <beam number="1">begin</beam>      </note>      <note default-x="41">        <pitch>          <step>D</step>          <octave>6</octave>        </pitch>        <duration>6</duration>        <voice>1</voice>        <type>eighth</type>        <stem default-y="-20.5">down</stem>        <beam number="1">continue</beam>      </note>      <note default-x="66">        <pitch>          <step>E</step>          <octave>6</octave>        </pitch>        <duration>6</duration>        <voice>1</voice>        <type>eighth</type>        <stem default-y="-21.5">down</stem>        <beam number="1">continue</beam>      </note>      <note default-x="98">        <pitch>          <step>C</step>          <octave>6</octave>        </pitch>        <duration>6</duration>        <voice>1</voice>        <type>eighth</type>        <stem default-y="-22.5">down</stem>        <beam number="1">end</beam>      </note>      <note default-x="122">        <pitch>          <step>E</step>          <octave>6</octave>        </pitch>        <duration>6</duration>        <voice>1</voice>        <type>eighth</type>        <stem default-y="-20">down</stem>        <beam number="1">begin</beam>      </note>      <note default-x="155">        <pitch>          <step>B</step>          <alter>-1</alter>          <octave>5</octave>        </pitch>        <duration>6</duration>        <voice>1</voice>        <type>eighth</type>        <accidental>flat</accidental>        <stem default-y="-21">down</stem>        <beam number="1">continue</beam>      </note>      <note default-x="180">        <pitch>          <step>E</step>          <octave>6</octave>        </pitch>        <duration>6</duration>        <voice>1</voice>        <type>eighth</type>        <stem default-y="-21.5">down</stem>        <beam number="1">continue</beam>      </note>      <note default-x="202">        <pitch>          <step>G</step>          <octave>5</octave>        </pitch>        <duration>6</duration>        <voice>1</voice>        <type>eighth</type>        <stem default-y="-22.5">down</stem>        <beam number="1">end</beam>      </note>    </measure>    <!--=======================================================-->    <measure number="13" width="258">      <note default-x="13">        <pitch>          <step>A</step>          <octave>4</octave>        </pitch>        <duration>6</duration>        <voice>1</voice>        <type>eighth</type>        <stem default-y="10">up</stem>        <beam number="1">begin</beam>      </note>      <note default-x="37">        <pitch>          <step>A</step>          <octave>4</octave>        </pitch>        <duration>3</duration>        <voice>1</voice>        <type>16th</type>        <stem default-y="10">up</stem>        <beam number="1">continue</beam>        <beam number="2">begin</beam>      </note>      <note default-x="55">        <pitch>          <step>A</step>          <octave>4</octave>        </pitch>        <duration>3</duration>        <voice>1</voice>        <type>16th</type>        <stem default-y="10">up</stem>        <beam number="1">end</beam>        <beam number="2">end</beam>      </note>      <note default-x="74">        <pitch>          <step>A</step>          <octave>4</octave>        </pitch>        <duration>4</duration>        <voice>1</voice>        <type>eighth</type>        <time-modification>          <actual-notes>3</actual-notes>          <normal-notes>2</normal-notes>        </time-modification>        <stem default-y="10">up</stem>        <beam number="1">begin</beam>        <notations>          <tuplet number="1" placement="above" type="start"/>        </notations>      </note>      <note default-x="103">        <pitch>          <step>F</step>          <octave>4</octave>        </pitch>        <duration>4</duration>        <voice>1</voice>        <type>eighth</type>        <time-modification>          <actual-notes>3</actual-notes>          <normal-notes>2</normal-notes>        </time-modification>        <stem default-y="13">up</stem>        <beam number="1">continue</beam>      </note>      <note default-x="132">        <pitch>          <step>B</step>          <alter>-1</alter>          <octave>4</octave>        </pitch>        <duration>4</duration>        <voice>1</voice>        <type>eighth</type>        <accidental>flat</accidental>        <time-modification>          <actual-notes>3</actual-notes>          <normal-notes>2</normal-notes>        </time-modification>        <stem default-y="15">up</stem>        <beam number="1">end</beam>        <notations>          <tuplet number="1" type="stop"/>        </notations>      </note>      <note default-x="162">        <pitch>          <step>C</step>          <octave>5</octave>        </pitch>        <duration>18</duration>        <voice>1</voice>        <type>quarter</type>        <dot/>        <stem default-y="-50">down</stem>      </note>      <note default-x="212">        <pitch>          <step>D</step>          <octave>6</octave>        </pitch>        <duration>3</duration>        <voice>1</voice>        <type>16th</type>        <stem default-y="-25">down</stem>        <beam number="1">begin</beam>        <beam number="2">begin</beam>      </note>      <note default-x="235">        <pitch>          <step>E</step>          <octave>6</octave>        </pitch>        <duration>3</duration>        <voice>1</voice>        <type>16th</type>        <stem default-y="-22.5">down</stem>        <beam number="1">end</beam>        <beam number="2">end</beam>      </note>    </measure>    <!--=======================================================-->    <measure number="14" width="296">      <print new-system="yes">        <system-layout>          <system-distance>114</system-distance>        </system-layout>      </print>      <note default-x="55">        <pitch>          <step>D</step>          <octave>6</octave>        </pitch>        <duration>6</duration>        <voice>1</voice>        <type>eighth</type>        <stem default-y="-20">down</stem>        <beam number="1">begin</beam>      </note>      <note default-x="87">        <pitch>          <step>C</step>          <octave>6</octave>        </pitch>        <duration>6</duration>        <voice>1</voice>        <type>eighth</type>        <stem default-y="-21">down</stem>        <beam number="1">continue</beam>      </note>      <note default-x="116">        <pitch>          <step>D</step>          <octave>6</octave>        </pitch>        <duration>6</duration>        <voice>1</voice>        <type>eighth</type>        <stem default-y="-21.5">down</stem>        <beam number="1">continue</beam>      </note>      <note default-x="148">        <pitch>          <step>B</step>          <alter>-1</alter>          <octave>5</octave>        </pitch>        <duration>6</duration>        <voice>1</voice>        <type>eighth</type>        <accidental>flat</accidental>        <stem default-y="-22">down</stem>        <beam number="1">end</beam>      </note>      <note default-x="177">        <pitch>          <step>D</step>          <octave>6</octave>        </pitch>        <duration>6</duration>        <voice>1</voice>        <type>eighth</type>        <stem default-y="-30">down</stem>        <beam number="1">begin</beam>      </note>      <note default-x="206">        <pitch>          <step>A</step>          <octave>5</octave>        </pitch>        <duration>6</duration>        <voice>1</voice>        <type>eighth</type>        <stem default-y="-31">down</stem>        <beam number="1">continue</beam>      </note>      <note default-x="235">        <pitch>          <step>D</step>          <octave>6</octave>        </pitch>        <duration>6</duration>        <voice>1</voice>        <type>eighth</type>        <stem default-y="-32">down</stem>        <beam number="1">continue</beam>      </note>      <note default-x="267">        <pitch>          <step>F</step>          <octave>5</octave>        </pitch>        <duration>6</duration>        <voice>1</voice>        <type>eighth</type>        <stem default-y="-32.5">down</stem>        <beam number="1">end</beam>      </note>    </measure>    <!--=======================================================-->    <measure number="15" width="255">      <note default-x="14">        <pitch>          <step>G</step>          <octave>4</octave>        </pitch>        <duration>6</duration>        <voice>1</voice>        <type>eighth</type>        <stem default-y="5">up</stem>        <beam number="1">begin</beam>      </note>      <note default-x="40">        <pitch>          <step>G</step>          <octave>4</octave>        </pitch>        <duration>3</duration>        <voice>1</voice>        <type>16th</type>        <stem default-y="5">up</stem>        <beam number="1">continue</beam>        <beam number="2">begin</beam>      </note>      <note default-x="59">        <pitch>          <step>G</step>          <octave>4</octave>        </pitch>        <duration>3</duration>        <voice>1</voice>        <type>16th</type>        <stem default-y="5">up</stem>        <beam number="1">end</beam>        <beam number="2">end</beam>      </note>      <note default-x="79">        <pitch>          <step>G</step>          <octave>4</octave>        </pitch>        <duration>4</duration>        <voice>1</voice>        <type>eighth</type>        <time-modification>          <actual-notes>3</actual-notes>          <normal-notes>2</normal-notes>        </time-modification>        <stem default-y="5">up</stem>        <beam number="1">begin</beam>        <notations>          <tuplet number="1" placement="above" type="start"/>        </notations>      </note>      <note default-x="100">        <pitch>          <step>D</step>          <octave>4</octave>        </pitch>        <duration>4</duration>        <voice>1</voice>        <type>eighth</type>        <time-modification>          <actual-notes>3</actual-notes>          <normal-notes>2</normal-notes>        </time-modification>        <stem default-y="7.5">up</stem>        <beam number="1">continue</beam>      </note>      <note default-x="122">        <pitch>          <step>A</step>          <octave>4</octave>        </pitch>        <duration>4</duration>        <voice>1</voice>        <type>eighth</type>        <time-modification>          <actual-notes>3</actual-notes>          <normal-notes>2</normal-notes>        </time-modification>        <stem default-y="10">up</stem>        <beam number="1">end</beam>        <notations>          <tuplet number="1" type="stop"/>        </notations>      </note>      <note default-x="151">        <pitch>          <step>B</step>          <alter>-1</alter>          <octave>4</octave>        </pitch>        <duration>18</duration>        <voice>1</voice>        <type>quarter</type>        <dot/>        <accidental>flat</accidental>        <stem default-y="-55">down</stem>      </note>      <note default-x="208">        <pitch>          <step>D</step>          <alter>-1</alter>          <octave>6</octave>        </pitch>        <duration>3</duration>        <voice>1</voice>        <type>16th</type>        <accidental>flat</accidental>        <stem default-y="-20">down</stem>        <beam number="1">begin</beam>        <beam number="2">begin</beam>      </note>      <note default-x="232">        <pitch>          <step>D</step>          <octave>6</octave>        </pitch>        <duration>3</duration>        <voice>1</voice>        <type>16th</type>        <accidental>natural</accidental>        <stem default-y="-20">down</stem>        <beam number="1">end</beam>        <beam number="2">end</beam>      </note>    </measure>    <!--=======================================================-->    <measure number="16" width="217">      <note default-x="17">        <pitch>          <step>D</step>          <alter>-1</alter>          <octave>6</octave>        </pitch>        <duration>6</duration>        <voice>1</voice>        <type>eighth</type>        <accidental>flat</accidental>        <stem default-y="-20">down</stem>        <beam number="1">begin</beam>      </note>      <note default-x="41">        <pitch>          <step>A</step>          <octave>5</octave>        </pitch>        <duration>6</duration>        <voice>1</voice>        <type>eighth</type>        <stem default-y="-21">down</stem>        <beam number="1">continue</beam>      </note>      <note default-x="66">        <pitch>          <step>D</step>          <alter>-1</alter>          <octave>6</octave>        </pitch>        <duration>6</duration>        <voice>1</voice>        <type>eighth</type>        <stem default-y="-21.5">down</stem>        <beam number="1">continue</beam>      </note>      <note default-x="91">        <pitch>          <step>G</step>          <octave>5</octave>        </pitch>        <duration>6</duration>        <voice>1</voice>        <type>eighth</type>        <stem default-y="-22">down</stem>        <beam number="1">end</beam>      </note>      <note default-x="117">        <pitch>          <step>D</step>          <alter>-1</alter>          <octave>6</octave>        </pitch>        <duration>6</duration>        <voice>1</voice>        <type>eighth</type>        <stem default-y="-40">down</stem>        <beam number="1">begin</beam>      </note>      <note default-x="141">        <pitch>          <step>E</step>          <octave>5</octave>        </pitch>        <duration>6</duration>        <voice>1</voice>        <type>eighth</type>        <stem default-y="-41">down</stem>        <beam number="1">continue</beam>      </note>      <note default-x="166">        <pitch>          <step>D</step>          <alter>-1</alter>          <octave>6</octave>        </pitch>        <duration>6</duration>        <voice>1</voice>        <type>eighth</type>        <stem default-y="-41.5">down</stem>        <beam number="1">continue</beam>      </note>      <note default-x="191">        <pitch>          <step>D</step>          <alter>-1</alter>          <octave>5</octave>        </pitch>        <duration>6</duration>        <voice>1</voice>        <type>eighth</type>        <accidental>flat</accidental>        <stem default-y="-42">down</stem>        <beam number="1">end</beam>      </note>    </measure>    <!--=======================================================-->    <measure number="17" width="216">      <note default-x="25">        <pitch>          <step>F</step>          <octave>4</octave>        </pitch>        <duration>6</duration>        <voice>1</voice>        <type>eighth</type>        <stem default-y="0">up</stem>        <beam number="1">begin</beam>      </note>      <note default-x="51">        <pitch>          <step>F</step>          <octave>4</octave>        </pitch>        <duration>3</duration>        <voice>1</voice>        <type>16th</type>        <stem default-y="0">up</stem>        <beam number="1">continue</beam>        <beam number="2">begin</beam>      </note>      <note default-x="68">        <pitch>          <step>F</step>          <octave>4</octave>        </pitch>        <duration>3</duration>        <voice>1</voice>        <type>16th</type>        <stem default-y="0">up</stem>        <beam number="1">end</beam>        <beam number="2">end</beam>      </note>      <note default-x="86">        <pitch>          <step>F</step>          <octave>4</octave>        </pitch>        <duration>4</duration>        <voice>1</voice>        <type>eighth</type>        <time-modification>          <actual-notes>3</actual-notes>          <normal-notes>2</normal-notes>        </time-modification>        <stem default-y="0">up</stem>        <beam number="1">begin</beam>        <notations>          <tuplet number="1" placement="above" type="start"/>        </notations>      </note>      <note default-x="107">        <pitch>          <step>D</step>          <octave>4</octave>        </pitch>        <duration>4</duration>        <voice>1</voice>        <type>eighth</type>        <time-modification>          <actual-notes>3</actual-notes>          <normal-notes>2</normal-notes>        </time-modification>        <stem default-y="2.5">up</stem>        <beam number="1">continue</beam>      </note>      <note default-x="127">        <pitch>          <step>G</step>          <octave>4</octave>        </pitch>        <duration>4</duration>        <voice>1</voice>        <type>eighth</type>        <time-modification>          <actual-notes>3</actual-notes>          <normal-notes>2</normal-notes>        </time-modification>        <stem default-y="5">up</stem>        <beam number="1">end</beam>        <notations>          <tuplet number="1" type="stop"/>        </notations>      </note>      <note default-x="147">        <pitch>          <step>A</step>          <octave>4</octave>        </pitch>        <duration>24</duration>        <voice>1</voice>        <type>half</type>        <stem default-y="10">up</stem>      </note>    </measure>    <!--=======================================================-->    <measure number="18" width="423">      <print new-system="yes">        <system-layout>          <system-distance>114</system-distance>        </system-layout>      </print>      <note default-x="52">        <rest/>        <duration>6</duration>        <voice>1</voice>        <type>eighth</type>      </note>      <note default-x="80">        <pitch>          <step>F</step>          <alter>1</alter>          <octave>5</octave>        </pitch>        <duration>3</duration>        <voice>1</voice>        <type>16th</type>        <accidental>sharp</accidental>        <stem default-y="-40">down</stem>        <beam number="1">begin</beam>        <beam number="2">begin</beam>      </note>      <note default-x="101">        <pitch>          <step>D</step>          <octave>5</octave>        </pitch>        <duration>3</duration>        <voice>1</voice>        <type>16th</type>        <stem default-y="-42">down</stem>        <beam number="1">end</beam>        <beam number="2">end</beam>      </note>      <note default-x="123">        <pitch>          <step>E</step>          <octave>5</octave>        </pitch>        <duration>3</duration>        <voice>1</voice>        <type>16th</type>        <stem default-y="-35">down</stem>        <beam number="1">begin</beam>        <beam number="2">begin</beam>      </note>      <note default-x="144">        <pitch>          <step>F</step>          <alter>1</alter>          <octave>5</octave>        </pitch>        <duration>3</duration>        <voice>1</voice>        <type>16th</type>        <stem default-y="-34">down</stem>        <beam number="1">continue</beam>        <beam number="2">continue</beam>      </note>      <note default-x="165">        <pitch>          <step>G</step>          <octave>5</octave>        </pitch>        <duration>3</duration>        <voice>1</voice>        <type>16th</type>        <stem default-y="-33.5">down</stem>        <beam number="1">continue</beam>        <beam number="2">continue</beam>      </note>      <note default-x="189">        <pitch>          <step>A</step>          <octave>5</octave>        </pitch>        <duration>3</duration>        <voice>1</voice>        <type>16th</type>        <stem default-y="-32.5">down</stem>        <beam number="1">end</beam>        <beam number="2">end</beam>      </note>      <note default-x="212">        <pitch>          <step>F</step>          <alter>1</alter>          <octave>5</octave>        </pitch>        <duration>3</duration>        <voice>1</voice>        <type>16th</type>        <stem default-y="-35">down</stem>        <beam number="1">begin</beam>        <beam number="2">begin</beam>      </note>      <note default-x="234">        <pitch>          <step>G</step>          <octave>5</octave>        </pitch>        <duration>3</duration>        <voice>1</voice>        <type>16th</type>        <stem default-y="-34">down</stem>        <beam number="1">continue</beam>        <beam number="2">continue</beam>      </note>      <note default-x="257">        <pitch>          <step>A</step>          <octave>5</octave>        </pitch>        <duration>3</duration>        <voice>1</voice>        <type>16th</type>        <stem default-y="-33.5">down</stem>        <beam number="1">continue</beam>        <beam number="2">continue</beam>      </note>      <note default-x="290">        <pitch>          <step>B</step>          <alter>-1</alter>          <octave>5</octave>        </pitch>        <duration>3</duration>        <voice>1</voice>        <type>16th</type>        <accidental>flat</accidental>        <stem default-y="-32.5">down</stem>        <beam number="1">end</beam>        <beam number="2">end</beam>      </note>      <note default-x="315">        <pitch>          <step>A</step>          <octave>5</octave>        </pitch>        <duration>3</duration>        <voice>1</voice>        <type>16th</type>        <stem default-y="-25">down</stem>        <beam number="1">begin</beam>        <beam number="2">begin</beam>      </note>      <note default-x="347">        <pitch>          <step>C</step>          <octave>6</octave>        </pitch>        <duration>3</duration>        <voice>1</voice>        <type>16th</type>        <stem default-y="-24">down</stem>        <beam number="1">continue</beam>        <beam number="2">continue</beam>      </note>      <note default-x="373">        <pitch>          <step>D</step>          <octave>6</octave>        </pitch>        <duration>3</duration>        <voice>1</voice>        <type>16th</type>        <stem default-y="-23">down</stem>        <beam number="1">continue</beam>        <beam number="2">continue</beam>      </note>      <note default-x="399">        <pitch>          <step>E</step>          <octave>6</octave>        </pitch>        <duration>3</duration>        <voice>1</voice>        <type>16th</type>        <stem default-y="-22">down</stem>        <beam number="1">end</beam>        <beam number="2">end</beam>      </note>    </measure>    <!--=======================================================-->    <measure number="19" width="314">      <note default-x="25">        <pitch>          <step>B</step>          <alter>-1</alter>          <octave>5</octave>        </pitch>        <duration>6</duration>        <voice>1</voice>        <type>eighth</type>        <accidental>flat</accidental>        <stem default-y="-20">down</stem>        <beam number="1">begin</beam>      </note>      <note default-x="55">        <pitch>          <step>B</step>          <alter>-1</alter>          <octave>5</octave>        </pitch>        <duration>3</duration>        <voice>1</voice>        <type>16th</type>        <stem default-y="-20">down</stem>        <beam number="1">continue</beam>        <beam number="2">begin</beam>      </note>      <note default-x="81">        <pitch>          <step>B</step>          <alter>-1</alter>          <octave>5</octave>        </pitch>        <duration>3</duration>        <voice>1</voice>        <type>16th</type>        <stem default-y="-20">down</stem>        <beam number="1">end</beam>        <beam number="2">end</beam>      </note>      <note default-x="106">        <pitch>          <step>B</step>          <alter>-1</alter>          <octave>5</octave>        </pitch>        <duration>4</duration>        <voice>1</voice>        <type>eighth</type>        <time-modification>          <actual-notes>3</actual-notes>          <normal-notes>2</normal-notes>        </time-modification>        <stem default-y="-35">down</stem>        <beam number="1">begin</beam>        <notations>          <tuplet number="1" placement="below" type="start"/>        </notations>      </note>      <note default-x="140">        <pitch>          <step>F</step>          <octave>5</octave>        </pitch>        <duration>4</duration>        <voice>1</voice>        <type>eighth</type>        <time-modification>          <actual-notes>3</actual-notes>          <normal-notes>2</normal-notes>        </time-modification>        <stem default-y="-35">down</stem>        <beam number="1">continue</beam>      </note>      <note default-x="171">        <pitch>          <step>C</step>          <octave>6</octave>        </pitch>        <duration>4</duration>        <voice>1</voice>        <type>eighth</type>        <time-modification>          <actual-notes>3</actual-notes>          <normal-notes>2</normal-notes>        </time-modification>        <stem default-y="-35">down</stem>        <beam number="1">end</beam>        <notations>          <tuplet number="1" type="stop"/>        </notations>      </note>      <note default-x="198">        <pitch>          <step>D</step>          <octave>6</octave>        </pitch>        <duration>18</duration>        <voice>1</voice>        <type>quarter</type>        <dot/>        <stem default-y="-20">down</stem>      </note>      <note default-x="258">        <pitch>          <step>E</step>          <octave>6</octave>        </pitch>        <duration>3</duration>        <voice>1</voice>        <type>16th</type>        <stem default-y="-25">down</stem>        <beam number="1">begin</beam>        <beam number="2">begin</beam>      </note>      <note default-x="290">        <pitch>          <step>F</step>          <octave>6</octave>        </pitch>        <duration>3</duration>        <voice>1</voice>        <type>16th</type>        <stem default-y="-22">down</stem>        <beam number="1">end</beam>        <beam number="2">end</beam>      </note>    </measure>    <!--=======================================================-->    <measure number="20" width="246">      <note default-x="16">        <pitch>          <step>E</step>          <octave>6</octave>        </pitch>        <duration>6</duration>        <voice>1</voice>        <type>eighth</type>        <stem default-y="-20">down</stem>        <beam number="1">begin</beam>      </note>      <note default-x="44">        <pitch>          <step>D</step>          <octave>6</octave>        </pitch>        <duration>6</duration>        <voice>1</voice>        <type>eighth</type>        <stem default-y="-21">down</stem>        <beam number="1">continue</beam>      </note>      <note default-x="72">        <pitch>          <step>E</step>          <octave>6</octave>        </pitch>        <duration>6</duration>        <voice>1</voice>        <type>eighth</type>        <stem default-y="-21">down</stem>        <beam number="1">continue</beam>      </note>      <note default-x="104">        <pitch>          <step>C</step>          <octave>6</octave>        </pitch>        <duration>6</duration>        <voice>1</voice>        <type>eighth</type>        <stem default-y="-22">down</stem>        <beam number="1">end</beam>      </note>      <note default-x="132">        <pitch>          <step>E</step>          <octave>6</octave>        </pitch>        <duration>6</duration>        <voice>1</voice>        <type>eighth</type>        <stem default-y="-20">down</stem>        <beam number="1">begin</beam>      </note>      <note default-x="164">        <pitch>          <step>B</step>          <alter>-1</alter>          <octave>5</octave>        </pitch>        <duration>6</duration>        <voice>1</voice>        <type>eighth</type>        <accidental>flat</accidental>        <stem default-y="-21">down</stem>        <beam number="1">continue</beam>      </note>      <note default-x="192">        <pitch>          <step>E</step>          <octave>6</octave>        </pitch>        <duration>6</duration>        <voice>1</voice>        <type>eighth</type>        <stem default-y="-22">down</stem>        <beam number="1">continue</beam>      </note>      <note default-x="218">        <pitch>          <step>G</step>          <octave>5</octave>        </pitch>        <duration>6</duration>        <voice>1</voice>        <type>eighth</type>        <stem default-y="-22">down</stem>        <beam number="1">end</beam>      </note>    </measure>    <!--=======================================================-->    <measure number="21" width="300">      <print new-system="yes">        <system-layout>          <system-distance>114</system-distance>        </system-layout>      </print>      <note default-x="52">        <pitch>          <step>A</step>          <octave>4</octave>        </pitch>        <duration>6</duration>        <voice>1</voice>        <type>eighth</type>        <stem default-y="10">up</stem>        <beam number="1">begin</beam>      </note>      <note default-x="76">        <pitch>          <step>A</step>          <octave>4</octave>        </pitch>        <duration>3</duration>        <voice>1</voice>        <type>16th</type>        <stem default-y="10">up</stem>        <beam number="1">continue</beam>        <beam number="2">begin</beam>      </note>      <note default-x="95">        <pitch>          <step>A</step>          <octave>4</octave>        </pitch>        <duration>3</duration>        <voice>1</voice>        <type>16th</type>        <stem default-y="10">up</stem>        <beam number="1">end</beam>        <beam number="2">end</beam>      </note>      <note default-x="114">        <pitch>          <step>A</step>          <octave>4</octave>        </pitch>        <duration>4</duration>        <voice>1</voice>        <type>eighth</type>        <time-modification>          <actual-notes>3</actual-notes>          <normal-notes>2</normal-notes>        </time-modification>        <stem default-y="10">up</stem>        <beam number="1">begin</beam>        <notations>          <tuplet number="1" placement="above" type="start"/>        </notations>      </note>      <note default-x="143">        <pitch>          <step>F</step>          <octave>4</octave>        </pitch>        <duration>4</duration>        <voice>1</voice>        <type>eighth</type>        <time-modification>          <actual-notes>3</actual-notes>          <normal-notes>2</normal-notes>        </time-modification>        <stem default-y="12.5">up</stem>        <beam number="1">continue</beam>      </note>      <note default-x="173">        <pitch>          <step>B</step>          <alter>-1</alter>          <octave>4</octave>        </pitch>        <duration>4</duration>        <voice>1</voice>        <type>eighth</type>        <accidental>flat</accidental>        <time-modification>          <actual-notes>3</actual-notes>          <normal-notes>2</normal-notes>        </time-modification>        <stem default-y="15">up</stem>        <beam number="1">end</beam>        <notations>          <tuplet number="1" type="stop"/>        </notations>      </note>      <note default-x="202">        <pitch>          <step>C</step>          <octave>5</octave>        </pitch>        <duration>18</duration>        <voice>1</voice>        <type>quarter</type>        <dot/>        <stem default-y="-50.5">down</stem>      </note>      <note default-x="254">        <pitch>          <step>D</step>          <octave>6</octave>        </pitch>        <duration>3</duration>        <voice>1</voice>        <type>16th</type>        <stem default-y="-25">down</stem>        <beam number="1">begin</beam>        <beam number="2">begin</beam>      </note>      <note default-x="278">        <pitch>          <step>E</step>          <octave>6</octave>        </pitch>        <duration>3</duration>        <voice>1</voice>        <type>16th</type>        <stem default-y="-22">down</stem>        <beam number="1">end</beam>        <beam number="2">end</beam>      </note>    </measure>    <!--=======================================================-->    <measure number="22" width="241">      <note default-x="16">        <pitch>          <step>D</step>          <octave>6</octave>        </pitch>        <duration>6</duration>        <voice>1</voice>        <type>eighth</type>        <stem default-y="-20">down</stem>        <beam number="1">begin</beam>      </note>      <note default-x="49">        <pitch>          <step>C</step>          <octave>6</octave>        </pitch>        <duration>6</duration>        <voice>1</voice>        <type>eighth</type>        <stem default-y="-21">down</stem>        <beam number="1">continue</beam>      </note>      <note default-x="74">        <pitch>          <step>D</step>          <octave>6</octave>        </pitch>        <duration>6</duration>        <voice>1</voice>        <type>eighth</type>        <stem default-y="-22">down</stem>        <beam number="1">continue</beam>      </note>      <note default-x="107">        <pitch>          <step>B</step>          <alter>-1</alter>          <octave>5</octave>        </pitch>        <duration>6</duration>        <voice>1</voice>        <type>eighth</type>        <accidental>flat</accidental>        <stem default-y="-22">down</stem>        <beam number="1">end</beam>      </note>      <note default-x="132">        <pitch>          <step>D</step>          <octave>6</octave>        </pitch>        <duration>6</duration>        <voice>1</voice>        <type>eighth</type>        <stem default-y="-30">down</stem>        <beam number="1">begin</beam>      </note>      <note default-x="158">        <pitch>          <step>A</step>          <octave>5</octave>        </pitch>        <duration>6</duration>        <voice>1</voice>        <type>eighth</type>        <stem default-y="-30.5">down</stem>        <beam number="1">continue</beam>      </note>      <note default-x="184">        <pitch>          <step>D</step>          <octave>6</octave>        </pitch>        <duration>6</duration>        <voice>1</voice>        <type>eighth</type>        <stem default-y="-31.5">down</stem>        <beam number="1">continue</beam>      </note>      <note default-x="216">        <pitch>          <step>F</step>          <octave>5</octave>        </pitch>        <duration>6</duration>        <voice>1</voice>        <type>eighth</type>        <stem default-y="-32.5">down</stem>        <beam number="1">end</beam>      </note>    </measure>    <!--=======================================================-->    <measure number="23" width="238">      <note default-x="14">        <pitch>          <step>G</step>          <octave>4</octave>        </pitch>        <duration>6</duration>        <voice>1</voice>        <type>eighth</type>        <stem default-y="5">up</stem>        <beam number="1">begin</beam>      </note>      <note default-x="37">        <pitch>          <step>G</step>          <octave>4</octave>        </pitch>        <duration>3</duration>        <voice>1</voice>        <type>16th</type>        <stem default-y="5">up</stem>        <beam number="1">continue</beam>        <beam number="2">begin</beam>      </note>      <note default-x="56">        <pitch>          <step>G</step>          <octave>4</octave>        </pitch>        <duration>3</duration>        <voice>1</voice>        <type>16th</type>        <stem default-y="5">up</stem>        <beam number="1">end</beam>        <beam number="2">end</beam>      </note>      <note default-x="74">        <pitch>          <step>G</step>          <octave>4</octave>        </pitch>        <duration>4</duration>        <voice>1</voice>        <type>eighth</type>        <time-modification>          <actual-notes>3</actual-notes>          <normal-notes>2</normal-notes>        </time-modification>        <stem default-y="5">up</stem>        <beam number="1">begin</beam>        <notations>          <tuplet number="1" placement="above" type="start"/>        </notations>      </note>      <note default-x="94">        <pitch>          <step>D</step>          <octave>4</octave>        </pitch>        <duration>4</duration>        <voice>1</voice>        <type>eighth</type>        <time-modification>          <actual-notes>3</actual-notes>          <normal-notes>2</normal-notes>        </time-modification>        <stem default-y="7.5">up</stem>        <beam number="1">continue</beam>      </note>      <note default-x="113">        <pitch>          <step>A</step>          <octave>4</octave>        </pitch>        <duration>4</duration>        <voice>1</voice>        <type>eighth</type>        <time-modification>          <actual-notes>3</actual-notes>          <normal-notes>2</normal-notes>        </time-modification>        <stem default-y="10">up</stem>        <beam number="1">end</beam>        <notations>          <tuplet number="1" type="stop"/>        </notations>      </note>      <note default-x="142">        <pitch>          <step>B</step>          <alter>-1</alter>          <octave>4</octave>        </pitch>        <duration>18</duration>        <voice>1</voice>        <type>quarter</type>        <dot/>        <accidental>flat</accidental>        <stem default-y="-55">down</stem>      </note>      <note default-x="193">        <pitch>          <step>D</step>          <alter>-1</alter>          <octave>6</octave>        </pitch>        <duration>3</duration>        <voice>1</voice>        <type>16th</type>        <accidental>flat</accidental>        <stem default-y="-20">down</stem>        <beam number="1">begin</beam>        <beam number="2">begin</beam>      </note>      <note default-x="217">        <pitch>          <step>D</step>          <octave>6</octave>        </pitch>        <duration>3</duration>        <voice>1</voice>        <type>16th</type>        <accidental>natural</accidental>        <stem default-y="-20">down</stem>        <beam number="1">end</beam>        <beam number="2">end</beam>      </note>    </measure>    <!--=======================================================-->    <measure number="24" width="204">      <note default-x="16">        <pitch>          <step>D</step>          <alter>-1</alter>          <octave>6</octave>        </pitch>        <duration>6</duration>        <voice>1</voice>        <type>eighth</type>        <accidental>flat</accidental>        <stem default-y="-20">down</stem>        <beam number="1">begin</beam>      </note>      <note default-x="40">        <pitch>          <step>A</step>          <octave>5</octave>        </pitch>        <duration>6</duration>        <voice>1</voice>        <type>eighth</type>        <stem default-y="-21">down</stem>        <beam number="1">continue</beam>      </note>      <note default-x="64">        <pitch>          <step>D</step>          <alter>-1</alter>          <octave>6</octave>        </pitch>        <duration>6</duration>        <voice>1</voice>        <type>eighth</type>        <stem default-y="-22">down</stem>        <beam number="1">continue</beam>      </note>      <note default-x="87">        <pitch>          <step>G</step>          <octave>5</octave>        </pitch>        <duration>6</duration>        <voice>1</voice>        <type>eighth</type>        <stem default-y="-22">down</stem>        <beam number="1">end</beam>      </note>      <note default-x="110">        <pitch>          <step>D</step>          <alter>-1</alter>          <octave>6</octave>        </pitch>        <duration>6</duration>        <voice>1</voice>        <type>eighth</type>        <stem default-y="-40">down</stem>        <beam number="1">begin</beam>      </note>      <note default-x="133">        <pitch>          <step>E</step>          <octave>5</octave>        </pitch>        <duration>6</duration>        <voice>1</voice>        <type>eighth</type>        <stem default-y="-41">down</stem>        <beam number="1">continue</beam>      </note>      <note default-x="156">        <pitch>          <step>D</step>          <alter>-1</alter>          <octave>6</octave>        </pitch>        <duration>6</duration>        <voice>1</voice>        <type>eighth</type>        <stem default-y="-42">down</stem>        <beam number="1">continue</beam>      </note>      <note default-x="180">        <pitch>          <step>D</step>          <alter>-1</alter>          <octave>5</octave>        </pitch>        <duration>6</duration>        <voice>1</voice>        <type>eighth</type>        <accidental>flat</accidental>        <stem default-y="-42">down</stem>        <beam number="1">end</beam>      </note>    </measure>    <!--=======================================================-->    <measure number="25" width="983">      <print new-system="yes">        <system-layout>          <system-distance>114</system-distance>        </system-layout>      </print>      <note default-x="63">        <pitch>          <step>F</step>          <octave>4</octave>        </pitch>        <duration>6</duration>        <voice>1</voice>        <type>eighth</type>        <stem default-y="0">up</stem>        <beam number="1">begin</beam>      </note>      <note default-x="191">        <pitch>          <step>F</step>          <octave>4</octave>        </pitch>        <duration>3</duration>        <voice>1</voice>        <type>16th</type>        <stem default-y="0">up</stem>        <beam number="1">continue</beam>        <beam number="2">begin</beam>      </note>      <note default-x="270">        <pitch>          <step>F</step>          <octave>4</octave>        </pitch>        <duration>3</duration>        <voice>1</voice>        <type>16th</type>        <stem default-y="0">up</stem>        <beam number="1">end</beam>        <beam number="2">end</beam>      </note>      <note default-x="349">        <pitch>          <step>F</step>          <octave>4</octave>        </pitch>        <duration>4</duration>        <voice>1</voice>        <type>eighth</type>        <time-modification>          <actual-notes>3</actual-notes>          <normal-notes>2</normal-notes>        </time-modification>        <stem default-y="10">up</stem>        <beam number="1">begin</beam>        <notations>          <tuplet number="1" placement="above" type="start"/>        </notations>      </note>      <note default-x="445">        <pitch>          <step>A</step>          <octave>4</octave>        </pitch>        <duration>4</duration>        <voice>1</voice>        <type>eighth</type>        <time-modification>          <actual-notes>3</actual-notes>          <normal-notes>2</normal-notes>        </time-modification>        <stem default-y="10">up</stem>        <beam number="1">continue</beam>      </note>      <note default-x="541">        <pitch>          <step>F</step>          <octave>4</octave>        </pitch>        <duration>4</duration>        <voice>1</voice>        <type>eighth</type>        <time-modification>          <actual-notes>3</actual-notes>          <normal-notes>2</normal-notes>        </time-modification>        <stem default-y="10">up</stem>        <beam number="1">end</beam>        <notations>          <tuplet number="1" type="stop"/>        </notations>      </note>      <note default-x="638">        <pitch>          <step>D</step>          <octave>4</octave>        </pitch>        <duration>24</duration>        <voice>1</voice>        <type>half</type>        <stem default-y="-9">up</stem>      </note>      <barline location="right">        <bar-style>light-heavy</bar-style>      </barline>    </measure>  </part>  <!--=========================================================--></score-partwise>